<svg width="132" height="112" viewBox="0 0 132 112" fill="none" xmlns="http://www.w3.org/2000/svg">
<path d="M63.0459 53.127C63.0459 53.4199 62.9756 53.7158 62.835 54.0146C62.6943 54.3076 62.4922 54.5742 62.2285 54.8145C61.9648 55.0488 61.6455 55.2422 61.2705 55.3945C60.9014 55.541 60.4854 55.6143 60.0225 55.6143C59.7764 55.6143 59.5479 55.5996 59.3369 55.5703C59.126 55.541 58.9268 55.5029 58.7393 55.4561C58.5576 55.4033 58.3818 55.3418 58.2119 55.2715C58.042 55.1953 57.8721 55.1133 57.7021 55.0254L58.0889 53.8213C58.2002 53.8975 58.3467 53.9795 58.5283 54.0674C58.7158 54.1553 58.918 54.2373 59.1348 54.3135C59.3516 54.3896 59.5684 54.4541 59.7852 54.5068C60.0078 54.5537 60.21 54.5771 60.3916 54.5771C60.5967 54.5771 60.7637 54.5654 60.8926 54.542C61.0273 54.5127 61.1475 54.4746 61.2529 54.4277C61.3701 54.3809 61.4639 54.2637 61.5342 54.0762C61.6045 53.8887 61.6396 53.6455 61.6396 53.3467C61.6396 53.0713 61.5488 52.8516 61.3672 52.6875C61.1855 52.5234 60.957 52.3828 60.6816 52.2656C60.4121 52.1426 60.1191 52.0225 59.8027 51.9053C59.4863 51.7822 59.1904 51.627 58.915 51.4395C58.6455 51.2461 58.4199 51 58.2383 50.7012C58.0566 50.4023 57.9658 50.0098 57.9658 49.5234C57.9658 49.2891 58.0273 49.043 58.1504 48.7852C58.2734 48.5215 58.4521 48.2812 58.6865 48.0645C58.9209 47.8418 59.2109 47.6602 59.5566 47.5195C59.9023 47.3789 60.2949 47.3086 60.7344 47.3086C61.0859 47.3086 61.4229 47.3262 61.7451 47.3613C62.0732 47.3965 62.3896 47.4434 62.6943 47.502L62.4482 48.7061C62.3076 48.6533 62.1465 48.6035 61.9648 48.5566C61.7891 48.5098 61.6074 48.4688 61.4199 48.4336C61.2383 48.3984 61.0596 48.3721 60.8838 48.3545C60.708 48.3311 60.5527 48.3193 60.418 48.3193C60.2656 48.3193 60.125 48.3281 59.9961 48.3457C59.8672 48.3574 59.75 48.3955 59.6445 48.46C59.5449 48.5186 59.4717 48.6211 59.4248 48.7676C59.3838 48.9082 59.3633 49.0781 59.3633 49.2773C59.3633 49.4824 59.416 49.6523 59.5215 49.7871C59.627 49.9219 59.7646 50.042 59.9346 50.1475C60.1104 50.2471 60.3066 50.3408 60.5234 50.4287C60.7461 50.5107 60.9717 50.6016 61.2002 50.7012C61.4346 50.7949 61.6602 50.9062 61.877 51.0352C62.0996 51.1582 62.2959 51.3135 62.4658 51.501C62.6416 51.6826 62.7822 51.9053 62.8877 52.1689C62.9932 52.4326 63.0459 52.752 63.0459 53.127ZM69.8964 55.5V51.8525H66.416V55.5H64.8515V47.3965H66.416V50.9473H69.8964V47.3965H71.4697V55.5H69.8964ZM78.6718 55.5L77.7665 52.7666L74.8661 52.8105L73.9345 55.5H72.9413L75.9911 47.4668L77.5116 47.1943L80.3505 55.5H78.6718ZM77.5204 52.002L76.3515 48.5039L75.1474 52.002H77.5204ZM88.1151 55.5439L82.6747 49.8574H82.6571C82.6688 50.332 82.6805 50.7686 82.6923 51.167C82.6981 51.3369 82.7011 51.5068 82.7011 51.6768C82.7069 51.8467 82.7098 52.0049 82.7098 52.1514C82.7157 52.292 82.7186 52.418 82.7186 52.5293C82.7186 52.6406 82.7186 52.7197 82.7186 52.7666V55.5H81.8046V47.3438H82.4901L87.9305 53.0039C87.9247 52.5703 87.9188 52.1631 87.913 51.7822C87.913 51.6182 87.91 51.4541 87.9042 51.29C87.9042 51.1201 87.9012 50.959 87.8954 50.8066C87.8954 50.6543 87.8954 50.5166 87.8954 50.3936C87.8954 50.2646 87.8954 50.1621 87.8954 50.0859V47.4053H88.8182V55.5439H88.1151ZM99.4432 53.3115C99.4432 53.6689 99.3846 53.9883 99.2674 54.2695C99.1561 54.5508 98.9803 54.791 98.74 54.9902C98.5057 55.1836 98.2068 55.333 97.8436 55.4385C97.4803 55.5381 97.0467 55.5879 96.5428 55.5879C96.3787 55.5879 96.1883 55.585 95.9715 55.5791C95.7547 55.5732 95.5291 55.5645 95.2947 55.5527C95.0662 55.5469 94.8406 55.5352 94.618 55.5176C94.4012 55.5 94.2107 55.4824 94.0467 55.4648V47.458C94.3572 47.4229 94.7117 47.3965 95.1102 47.3789C95.5086 47.3613 95.8836 47.3525 96.2352 47.3525C96.6629 47.3525 97.0525 47.3906 97.4041 47.4668C97.7557 47.5371 98.0545 47.6514 98.3006 47.8096C98.5525 47.9619 98.7459 48.1611 98.8807 48.4072C99.0154 48.6475 99.0828 48.9375 99.0828 49.2773C99.0828 49.5527 99.0447 49.7959 98.9686 50.0068C98.8924 50.2119 98.7898 50.3936 98.6609 50.5518C98.5379 50.7041 98.3914 50.8301 98.2215 50.9297C98.0516 51.0234 97.8758 51.0938 97.6941 51.1406V51.167C98.0047 51.2314 98.2684 51.3311 98.4852 51.4658C98.7078 51.6006 98.8895 51.7617 99.0301 51.9492C99.1707 52.1309 99.2732 52.3389 99.3377 52.5732C99.408 52.8018 99.4432 53.0479 99.4432 53.3115ZM97.492 49.4619C97.492 48.9814 97.3602 48.6475 97.0965 48.46C96.8387 48.2666 96.4725 48.1699 95.9979 48.1699C95.9275 48.1699 95.8572 48.1729 95.7869 48.1787C95.7225 48.1787 95.6639 48.1816 95.6111 48.1875V50.7979H96.1297C96.3113 50.7979 96.493 50.7803 96.6746 50.7451C96.8563 50.71 96.9969 50.666 97.0965 50.6133C97.1434 50.584 97.1902 50.5459 97.2371 50.499C97.284 50.4463 97.325 50.376 97.3602 50.2881C97.4012 50.2002 97.4334 50.0889 97.4568 49.9541C97.4803 49.8193 97.492 49.6553 97.492 49.4619ZM97.8436 53.2148C97.8436 52.6875 97.6941 52.2891 97.3953 52.0195C97.1023 51.75 96.6717 51.6152 96.1033 51.6152H95.6111V54.7266C95.658 54.7324 95.6961 54.7383 95.7254 54.7441C95.7605 54.7441 95.7957 54.7471 95.8309 54.7529C95.866 54.7529 95.91 54.7529 95.9627 54.7529C96.0154 54.7529 96.0916 54.7529 96.1912 54.7529C96.285 54.7529 96.3875 54.75 96.4988 54.7441C96.616 54.7324 96.7273 54.7207 96.8328 54.709C96.9441 54.6914 97.0438 54.6709 97.1316 54.6475C97.2254 54.624 97.2986 54.5977 97.3514 54.5684C97.4041 54.5332 97.4598 54.4863 97.5184 54.4277C97.577 54.3691 97.6297 54.29 97.6766 54.1904C97.7293 54.085 97.7703 53.9561 97.7996 53.8037C97.8289 53.6455 97.8436 53.4492 97.8436 53.2148ZM106.127 55.5L105.221 52.7666L102.321 52.8105L101.389 55.5H100.396L103.446 47.4668L104.967 47.1943L107.805 55.5H106.127ZM104.975 52.002L103.806 48.5039L102.602 52.002H104.975ZM115.5 47.9414C115.359 47.9414 115.224 47.9619 115.095 48.0029C114.967 48.0381 114.835 48.0967 114.7 48.1787C114.565 48.2607 114.422 48.3691 114.269 48.5039C114.123 48.6328 113.962 48.791 113.786 48.9785C113.592 49.1836 113.387 49.4121 113.171 49.6641C112.96 49.9102 112.731 50.1768 112.485 50.4639C112.807 51.1201 113.115 51.7207 113.408 52.2656C113.707 52.8105 113.997 53.2822 114.278 53.6807C114.565 54.0732 114.849 54.3809 115.131 54.6035C115.412 54.8203 115.705 54.9287 116.009 54.9287H116.106V55.4473C115.936 55.4941 115.763 55.5293 115.588 55.5527C115.412 55.5762 115.207 55.5879 114.972 55.5879C114.592 55.5879 114.26 55.5234 113.979 55.3945C113.698 55.2656 113.428 55.0488 113.171 54.7441C112.913 54.4336 112.646 54.0264 112.371 53.5225C112.101 53.0127 111.791 52.3828 111.439 51.6328C111.398 51.6797 111.348 51.7383 111.29 51.8086C111.237 51.873 111.178 51.9404 111.114 52.0107C111.055 52.0811 111 52.1514 110.947 52.2217C110.894 52.2861 110.853 52.3359 110.824 52.3711V55.5H109.259V47.3965H110.824V51.1934C110.976 51.0117 111.158 50.7861 111.369 50.5166C111.586 50.2471 111.805 49.9717 112.028 49.6904C112.257 49.4092 112.473 49.1426 112.678 48.8906C112.889 48.6387 113.065 48.4365 113.206 48.2842C113.387 48.085 113.551 47.9268 113.698 47.8096C113.844 47.6865 113.988 47.5957 114.129 47.5371C114.275 47.4727 114.425 47.4316 114.577 47.4141C114.729 47.3965 114.905 47.3877 115.104 47.3877C115.186 47.3877 115.28 47.3936 115.385 47.4053C115.497 47.4111 115.573 47.4229 115.614 47.4404V47.9414H115.5ZM122.043 55.5H117.411V47.3965H121.884L121.805 48.2227L118.975 48.2578V50.8945L121.638 50.9297L121.568 51.6768L118.975 51.7383V54.6387L122.113 54.7002L122.043 55.5ZM126.019 52.1602H125.492V55.5H123.927V47.4141C124.244 47.3906 124.601 47.3701 125 47.3525C125.398 47.335 125.779 47.3262 126.142 47.3262C127.074 47.3262 127.78 47.5049 128.26 47.8623C128.747 48.2197 128.99 48.7793 128.99 49.541C128.99 49.8809 128.949 50.1768 128.867 50.4287C128.785 50.6807 128.676 50.9004 128.542 51.0879C128.407 51.2754 128.252 51.4336 128.076 51.5625C127.9 51.6914 127.715 51.7998 127.522 51.8877C127.751 52.3037 127.967 52.6963 128.173 53.0654C128.383 53.4346 128.591 53.7568 128.797 54.0322C129.007 54.3076 129.218 54.5273 129.429 54.6914C129.646 54.8496 129.878 54.9287 130.124 54.9287H130.176V55.4473C130.053 55.4883 129.91 55.5205 129.746 55.5439C129.588 55.5732 129.409 55.5879 129.21 55.5879C128.923 55.5879 128.671 55.5615 128.454 55.5088C128.243 55.4561 128.035 55.3418 127.83 55.166C127.631 54.9902 127.423 54.7324 127.206 54.3926C126.989 54.0527 126.737 53.5928 126.45 53.0127L126.019 52.1602ZM125.773 51.3604C125.99 51.3604 126.198 51.334 126.397 51.2812C126.602 51.2227 126.763 51.1523 126.881 51.0703C126.939 51.0293 126.998 50.9766 127.056 50.9121C127.115 50.8477 127.168 50.7627 127.214 50.6572C127.261 50.5518 127.299 50.417 127.329 50.2529C127.358 50.0889 127.373 49.8838 127.373 49.6377C127.373 49.3623 127.34 49.1309 127.276 48.9434C127.217 48.7559 127.127 48.6064 127.004 48.4951C126.881 48.3779 126.728 48.2959 126.547 48.249C126.365 48.1963 126.157 48.1699 125.923 48.1699C125.858 48.1699 125.785 48.1729 125.703 48.1787C125.627 48.1787 125.556 48.1846 125.492 48.1963V51.3604H125.773Z" fill="#666666"/>
<g opacity="0.7">
<path opacity="0.7" d="M84.5059 0.948019C84.5059 0.948019 85.6886 0.267209 85.3165 1.75682L85.4592 3.04166L86.2289 4.12687L85.7549 4.9408L84.9188 4.81282L83.4864 4.57223C82.8441 4.47497 82.0284 4.38282 80.9987 4.23949C77.9417 3.85217 74.8633 3.65898 71.7821 3.66106H70.1457L68.3972 3.73272C67.7956 3.76343 67.1686 3.77368 66.5212 3.81975L64.5076 3.97331L63.4575 4.06545L62.3819 4.20367L60.1338 4.49544C58.6045 4.7821 56.9579 5.00734 55.2553 5.43221L54.7455 5.55506C54.4243 5.64208 53.935 5.73422 53.3182 5.9185L51.0548 6.56861C50.1627 6.80921 49.1737 7.18289 48.0624 7.53098C47.5017 7.70502 46.9256 7.92514 46.3292 8.15549L44.4482 8.85678C43.8059 9.11273 43.1482 9.40451 42.46 9.69117C41.7719 9.97783 41.0633 10.2747 40.3547 10.6279L38.1576 11.6517L35.8993 12.8444L35.3284 13.1465C35.155 13.2488 34.9817 13.341 34.8186 13.4485C34.4816 13.6502 34.1549 13.8689 33.8398 14.1037C33.2401 14.5252 32.7 15.0263 32.234 15.5933L32.1015 15.7622C32.0515 15.8276 32.0055 15.896 31.9639 15.967C31.903 16.0506 31.8501 16.1397 31.8058 16.2332C31.6954 16.4312 31.6228 16.6482 31.5917 16.873C31.5571 17.1192 31.5888 17.3702 31.6835 17.5999C31.8925 18.0165 32.1964 18.3778 32.5705 18.6544C32.851 18.8828 33.1493 19.0882 33.4626 19.2687C33.8194 19.4734 34.2221 19.6833 34.6453 19.883C36.3581 20.6866 38.5756 21.2907 41.2162 22.0585C41.8789 22.253 42.562 22.468 43.2553 22.7086C43.9486 22.9492 44.7081 23.2512 45.4422 23.584C47.0295 24.2872 48.5037 25.224 49.816 26.3635C51.3397 27.6847 52.4823 29.3925 53.1244 31.3084C53.7074 33.2601 53.8279 35.3216 53.4762 37.3283C53.1594 39.1896 52.6468 41.0119 51.9469 42.7646C51.288 44.4986 50.5323 46.1939 49.6835 47.8426C47.9563 51.1398 46.0274 54.3265 43.9078 57.3843C35.6648 69.7465 25.7651 81.0389 18.1185 89.9714C14.2748 94.43 10.9817 98.2999 8.47875 101.274C5.97578 104.248 4.28842 106.316 3.57983 107.099L5.48637 104.74C6.70472 103.24 8.46343 101.1 10.6198 98.5456C14.9171 93.4267 20.8458 86.6902 26.7489 79.6875C32.6521 72.6848 38.4431 65.3545 42.6028 59.2834C44.6929 56.2632 46.4261 53.5911 47.6444 51.4821C48.4425 50.1441 49.1708 48.7652 49.8262 47.3512C49.8262 47.3512 49.3165 48.3442 48.3938 50.0181C47.4711 51.692 46.0183 54.0211 44.1882 56.7086C40.5484 62.1039 35.308 69.0657 29.6444 75.8278C23.9809 82.5899 18.0624 89.3111 13.4388 94.6501C8.81519 99.9892 5.45579 103.941 4.56879 104.888C4.56879 104.888 7.11764 101.699 11.1601 96.9434C15.2026 92.1879 20.7183 85.8763 26.2391 79.2933C29.0021 76.007 31.7396 72.6387 34.2935 69.3472C36.8475 66.0558 39.172 62.8667 41.1856 59.9847C42.2052 58.5412 43.082 57.1591 43.9129 55.8896C44.7438 54.6201 45.4422 53.4632 46.0539 52.4292C46.891 51.0508 47.6385 49.6197 48.2918 48.1446C48.2918 48.1446 47.8432 48.9995 46.9817 50.4584C46.1202 51.9173 44.8407 53.9699 43.189 56.3605C39.9316 61.1774 35.2213 67.4276 30.093 73.6062C24.9647 79.7847 19.5102 85.9838 15.0854 90.9952C10.6606 96.0066 7.26548 99.8868 6.00635 101.233L10.0131 96.5185C12.1542 94.0256 14.5501 91.246 15.5238 90.038L11.9044 94.0512L17.5119 87.3966L20.856 83.6495L16.2069 88.7685C13.8313 91.3689 11.3691 94.0615 10.9817 94.3584C10.9817 94.3584 10.0335 95.592 11.048 94.4556C12.0624 93.3192 15.0701 89.8486 22.9307 80.4041L24.6792 78.3924L26.805 75.9097L29.6852 72.4493C31.8262 69.8079 34.4617 66.5472 37.3827 62.5698C38.8305 60.5785 40.3751 58.4234 41.9401 56.0687C43.5051 53.714 45.1363 51.1904 46.6503 48.3903C48.2742 45.4727 49.5685 42.3822 50.5093 39.1762C51.019 37.4739 51.2074 35.6909 51.065 33.9191C50.8816 32.0868 50.0856 30.3708 48.8067 29.051C47.456 27.6916 45.8355 26.6329 44.0505 25.9438C42.1784 25.2234 40.2609 24.6283 38.3105 24.1624C36.2362 23.6649 34.2225 22.9405 32.3054 22.0022C31.2675 21.4968 30.3417 20.7864 29.5832 19.9137C29.1861 19.4345 28.8833 18.8838 28.6911 18.291C28.5003 17.6773 28.4429 17.0297 28.5229 16.3919C28.7226 15.1477 29.2952 13.9941 30.1644 13.085C30.9723 12.1999 31.8927 11.4254 32.9018 10.7815C33.9214 10.1211 34.9409 9.62973 35.9605 9.05641C36.98 8.48309 38.0505 7.99679 39.1108 7.46954C43.534 5.38055 48.142 3.71135 52.8747 2.4837C57.8845 1.20221 63.0061 0.410212 68.1678 0.118754C73.6277 -0.184507 79.1043 0.0934621 84.5059 0.948019Z" fill="#202020"/>
<path opacity="0.7" d="M86.4936 5.50902L84.9643 5.21724L83.1546 4.87428L80.6924 4.52107C75.6089 3.84961 70.4685 3.72434 65.3585 4.14738C61.9673 4.40595 58.5991 4.91064 55.2804 5.65748C51.5982 6.46379 47.9834 7.55393 44.4681 8.91823C43.5608 9.28168 42.6584 9.67071 41.746 10.0495C40.8335 10.4283 39.9465 10.8941 39.0391 11.3088C38.1317 11.7234 37.2549 12.2353 36.3577 12.696C35.5182 13.1101 34.715 13.5947 33.9567 14.1447C33.3036 14.6049 32.7243 15.1624 32.2388 15.7981C32.059 16.0278 31.9178 16.2854 31.8207 16.5608C31.7851 16.6611 31.7562 16.7637 31.7341 16.8679C31.7341 16.955 31.7341 17.042 31.7341 17.1239C31.7366 17.2086 31.7486 17.2927 31.7698 17.3747C31.7922 17.4578 31.823 17.5384 31.8615 17.6153C31.9787 17.83 32.1283 18.0251 32.305 18.1937C32.8714 18.7118 33.5168 19.1352 34.2167 19.4479C34.2167 19.4479 34.4308 19.5605 34.8539 19.755C35.277 19.9495 35.9295 20.2157 36.8114 20.5229C37.6933 20.83 38.8505 21.1525 40.2116 21.5466C41.8642 21.991 43.4883 22.5363 45.0748 23.1796C47.1649 24.0301 49.0697 25.282 50.6823 26.8652C51.641 27.8367 52.4196 28.9721 52.9813 30.2181C53.5575 31.5308 53.8809 32.9412 53.9346 34.3747C53.9698 37.0447 53.4813 39.6954 52.497 42.176C51.6325 44.5702 50.5896 46.8956 49.3772 49.1326C46.9644 53.4705 44.2934 57.6586 41.3789 61.674C38.6211 65.59 35.8377 69.209 33.3093 72.3879C28.2472 78.7456 24.2354 83.3783 22.9405 84.8832C22.9405 84.8832 19.4588 88.9784 14.9371 94.2611C10.4155 99.5439 4.94562 106.035 1 111" stroke="#959595" stroke-width="0.02"/>
<path opacity="0.7" d="M49.2855 49.363C49.6678 48.6822 50.3458 47.4383 51.1411 45.7081C51.5285 44.843 51.9567 43.8601 52.3645 42.7544C52.8295 41.5415 53.2177 40.3002 53.5268 39.0381C53.9158 37.5001 54.0874 35.9147 54.0366 34.3287C53.9962 33.4207 53.8508 32.5205 53.6032 31.6463C53.3432 30.7165 52.9591 29.8263 52.4614 28.9999C51.4677 27.4055 50.1448 26.0439 48.582 25.0071C47.1541 24.0466 45.613 23.2677 43.9941 22.6882C40.8896 21.5774 38.04 21.0092 35.7817 20.1287C34.7794 19.7565 33.8259 19.2632 32.9422 18.6596C32.651 18.4554 32.39 18.2107 32.1674 17.9327C32.0395 17.7731 31.9427 17.5908 31.8819 17.3952C31.8069 17.0622 31.8597 16.7131 32.0297 16.4175C32.2483 16.0108 32.5248 15.6383 32.8505 15.3118C33.1064 15.0501 33.3807 14.8072 33.6712 14.5849C33.7739 14.4959 33.8811 14.4121 33.9924 14.3341C34.3594 14.0628 34.7774 13.8222 35.2107 13.5458L35.5472 13.3564L35.9397 13.1516L36.74 12.737L38.4019 11.8668L40.181 11.0375C41.379 10.4437 42.6687 9.94716 43.9788 9.3892C44.6313 9.10766 45.3195 8.87732 46.0178 8.63161C46.7162 8.3859 47.384 8.11971 48.0977 7.89448L50.2286 7.21878C50.9422 6.98331 51.6814 6.81438 52.4104 6.60962C53.8632 6.18475 55.3569 5.89297 56.8352 5.55C57.5795 5.40155 58.3288 5.2787 59.0731 5.14049L60.1844 4.94086L61.2957 4.79241L63.503 4.49039L65.6797 4.29587C70.6031 3.87921 75.5557 3.95981 80.463 4.53646L83.0119 4.87942C83.7613 4.99204 84.3985 5.13025 84.9235 5.21727L86.5497 5.51418" stroke="#202020" stroke-width="0.02"/>
<path opacity="0.7" d="M47.4655 50.0847C47.4655 50.0847 45.8139 53.0486 42.8776 57.3127C39.9413 61.5767 35.7714 67.2588 31.1529 72.9868C26.5344 78.7149 21.4672 84.5556 17.1495 89.5517C12.8317 94.5478 9.28883 98.7146 7.41797 100.926" stroke="#202020" stroke-width="0.02"/>
<path opacity="0.7" d="M50.9727 35.4445C50.9727 35.4445 50.9727 35.6799 50.9217 36.1099C50.8537 36.7416 50.7499 37.3688 50.6107 37.9886C50.0541 40.2222 49.2735 42.3935 48.2811 44.4691C45.9107 49.716 41.5164 56.1659 36.8112 62.5287C32.1061 68.8916 26.8962 75.1264 22.7059 79.9894C18.5156 84.8524 15.3703 88.4613 14.5088 89.4134" stroke="#959595" stroke-width="0.02"/>
</g>
<g opacity="0.7">
<path opacity="0.7" d="M50.4275 19.2379C50.4275 19.2379 49.515 19.2379 51.0341 19.0638L52.2423 18.8796L53.1191 18.6697L54.0112 18.5929C54.0112 18.5929 54.2967 18.8335 55.1633 21.8025C55.6081 22.6709 55.8947 23.6123 56.0095 24.5821C56.0095 24.5821 57.1565 36.4631 56.7283 37.4152C56.7283 37.4152 56.6059 29.8955 56.3103 29.4553C56.3103 29.4553 56.5295 36.6218 56.1115 37.2361C56.1115 37.2361 56.0044 30.2641 55.3162 29.7215C55.3162 29.7215 55.4131 36.1457 54.888 36.9852C54.9464 36.4665 54.9464 35.9427 54.888 35.424L54.7708 36.0126L54.6892 35.0963L54.7657 34.5537C54.7657 34.5537 54.5159 36.0331 54.312 36.156C54.312 36.156 54.6484 36.7754 54.2457 34.2108C54.2304 34.2108 54.9951 27.9298 50.4275 19.2379Z" fill="#202020"/>
<path opacity="0.7" d="M54.3787 18.4548C54.3787 18.4548 55.5103 22.0381 56.3464 25.5855C56.3464 25.5855 57.162 33.3714 57.111 34.2211C57.2303 35.4331 57.2303 36.6539 57.111 37.8658" stroke="#959595" stroke-width="0.02"/>
<path opacity="0.7" d="M56.7542 29.6141C56.8255 28.9691 56.168 24.2648 56.168 24.2648C55.9895 22.3759 54.3787 18.4548 54.3787 18.4548" stroke="#202020" stroke-width="0.02"/>
<path opacity="0.7" d="M55.5356 29.9161C55.5356 29.9161 55.8466 35.5163 55.7446 36.7653" stroke="#202020" stroke-width="0.02"/>
<path opacity="0.7" d="M53.6238 28.5442C53.6238 28.5442 53.8481 35.0094 53.7155 35.5725" stroke="#959595" stroke-width="0.02"/>
</g>
<g opacity="0.7">
<path opacity="0.7" d="M56.9732 34.7841C57.0276 34.7009 57.0721 34.6116 57.1057 34.5179V34.4667L57.1312 34.3234C57.1804 34.0156 57.1151 33.7004 56.9477 33.4378C56.9275 33.1333 56.9429 32.8275 56.9936 32.5266C57.0868 32.518 57.1807 32.518 57.2739 32.5266C57.6344 32.5394 57.9855 32.6452 58.2935 32.8338C58.522 32.9745 58.7297 33.1468 58.9103 33.3457C58.9635 33.3984 59.0129 33.4549 59.0581 33.5146L59.1856 33.6784C59.2225 33.7168 59.2566 33.7578 59.2875 33.8012C59.415 33.9599 59.4761 34.2056 59.7463 34.3131C59.8779 34.3382 60.0138 34.3244 60.1378 34.2736C60.2617 34.2227 60.3683 34.1369 60.4447 34.0265C60.5467 33.919 60.6384 33.7961 60.7353 33.6938C60.7353 33.6938 60.6843 33.6938 60.6945 33.6938L60.7761 33.6375L60.9392 33.5146C61.0564 33.4327 61.1686 33.3457 61.2858 33.2689C61.5254 33.1204 61.7956 32.9566 62.0403 32.8133L62.1728 32.7263C62.2988 32.6399 62.4299 32.5612 62.5654 32.4908C63.0567 32.2127 63.5679 31.9714 64.0947 31.769C65.7616 31.1599 67.5046 30.7861 69.2739 30.6582C69.2739 30.6582 71.053 30.5149 73.765 30.3613C76.477 30.2078 80.1065 30.0695 83.8075 30.0593C91.2195 30.003 98.8712 30.5712 99.9213 30.9244C99.9213 30.9244 98.81 30.8169 97.1227 30.6736C95.4353 30.5303 93.1669 30.3818 90.8627 30.2743C86.2748 30.0491 81.4931 30.0747 80.9375 30.218C80.9375 30.218 85.2196 30.218 89.6495 30.4688C94.0794 30.7197 98.6571 31.2111 99.2943 31.4926C99.2943 31.4926 95.1805 31.0933 90.8627 30.9449C86.545 30.7964 82.0437 30.8988 81.3198 31.2315C81.3198 31.2315 85.1278 31.2674 89.1499 31.5284C93.172 31.7895 97.4031 32.2707 98.3258 32.6341C98.3258 32.6341 97.6019 32.5369 96.7965 32.455C96.0896 32.3669 95.3779 32.3224 94.6656 32.3219L96.0114 32.5574L93.8398 32.4652L92.5858 32.2912C92.5858 32.2912 93.437 32.414 94.3138 32.5727C94.9605 32.6516 95.5955 32.808 96.2051 33.0385C96.2051 33.0385 96.5976 32.9873 96.2051 32.9208C94.6808 32.7691 93.1484 32.7145 91.6172 32.757C91.6172 32.757 90.7913 32.6597 89.2314 32.5625C87.6716 32.4652 85.3878 32.4038 82.4719 32.4959C78.9563 32.6133 75.4503 32.9312 71.9706 33.448C69.852 33.7033 67.7603 34.1488 65.7208 34.779C64.721 35.1174 63.7852 35.6228 62.9528 36.2737L62.1015 37.0159C61.7388 37.3455 61.3424 37.6355 60.9188 37.881C60.5142 38.1125 60.0697 38.2653 59.6087 38.3315C59.1305 38.3829 58.647 38.3143 58.2017 38.1319C57.5749 37.8553 57.043 37.3995 56.6724 36.8214C56.4329 36.4628 56.2345 36.0781 56.0811 35.6748V35.6338L56.3207 35.4854L56.392 35.4393C56.443 35.3984 56.5093 35.3472 56.5755 35.2858C56.7314 35.1386 56.8653 34.9696 56.9732 34.7841Z" fill="#202020"/>
<path opacity="0.7" d="M56.2898 32.2912L56.4223 32.24C56.5706 32.1854 56.7245 32.1476 56.8811 32.1274C57.153 32.0925 57.4289 32.1046 57.6968 32.1632C58.0136 32.2426 58.3139 32.3778 58.5838 32.5625C58.8541 32.7545 59.0946 32.9856 59.2975 33.2484C59.3484 33.315 59.3994 33.3866 59.4453 33.4583L59.4962 33.5248L59.5574 33.6272C59.6159 33.807 59.7258 33.9654 59.8735 34.0828C59.99 34.1057 60.1108 34.0818 60.2099 34.0163C60.332 33.9348 60.4389 33.8326 60.526 33.7142L60.6585 33.5402L60.6891 33.4992L60.6432 33.5248L60.6891 33.489L60.7911 33.4173L61.1989 33.1256C61.7919 32.7306 62.4178 32.3881 63.0697 32.1018C64.4529 31.5202 65.8983 31.1011 67.3773 30.8528C68.8709 30.5814 70.2983 30.4074 71.746 30.218C71.746 30.218 76.4308 29.8699 81.3756 29.7624C86.3204 29.6549 91.5098 29.7624 92.509 29.875C92.509 29.875 93.8701 29.9109 95.6288 30.0286C97.4749 30.1382 99.3142 30.3433 101.139 30.6429" stroke="#959595" stroke-width="0.02"/>
<path opacity="0.7" d="M81.4581 29.7572C80.6985 29.7111 77.4717 29.8084 74.4436 30.0183C72.9143 30.1207 71.4615 30.2435 70.3655 30.3408L68.5507 30.5148C66.6199 30.6747 64.727 31.143 62.9432 31.902C62.4004 32.1403 61.8772 32.421 61.3782 32.7416C61.1233 32.8951 60.8684 33.0743 60.639 33.2535L60.5473 33.32L60.5932 33.2893V33.32L60.5524 33.3865C60.4953 33.4951 60.4232 33.5951 60.3383 33.6834C60.2957 33.7295 60.2434 33.7654 60.1851 33.7884C60.1269 33.8114 60.0642 33.821 60.0018 33.8165C59.8769 33.7789 59.7711 33.6946 59.7062 33.5811C59.6682 33.5279 59.6255 33.4782 59.5787 33.4326C59.5787 33.4326 59.436 33.2432 59.3442 33.1357C59.2365 33.0105 59.1207 32.8925 58.9976 32.7825C58.7454 32.5534 58.4557 32.3698 58.1412 32.2399C57.8337 32.1156 57.5039 32.0564 57.1726 32.0659C56.9521 32.0722 56.7339 32.1119 56.5252 32.1836C56.3876 32.2296 56.3213 32.2604 56.3213 32.2604" stroke="#202020" stroke-width="0.02"/>
<path opacity="0.7" d="M81.8655 30.9962C81.8655 30.9962 85.2045 30.9962 88.9054 31.1037C92.6063 31.2112 96.6539 31.5183 98.0813 31.718" stroke="#202020" stroke-width="0.02"/>
<path opacity="0.7" d="M78.1904 32.885C78.1904 32.885 82.0035 32.8286 85.9695 32.9515C89.9355 33.0743 94.0494 33.3508 94.6866 33.4634" stroke="#959595" stroke-width="0.02"/>
</g>
</svg>
