<svg width="231" height="28" viewBox="0 0 231 28" fill="none" xmlns="http://www.w3.org/2000/svg">
<path d="M11.536 20.304H7.648V27H0.52V1.8H12.04C14.32 1.8 16.3 2.184 17.98 2.952C19.66 3.696 20.956 4.776 21.868 6.192C22.78 7.584 23.236 9.228 23.236 11.124C23.236 12.948 22.804 14.544 21.94 15.912C21.1 17.256 19.888 18.312 18.304 19.08L23.74 27H16.108L11.536 20.304ZM16.036 11.124C16.036 9.948 15.664 9.036 14.92 8.388C14.176 7.74 13.072 7.416 11.608 7.416H7.648V14.796H11.608C13.072 14.796 14.176 14.484 14.92 13.86C15.664 13.212 16.036 12.3 16.036 11.124ZM46.7884 17.28C46.7884 17.328 46.7524 17.892 46.6804 18.972H32.4964C32.7844 19.98 33.3364 20.76 34.1524 21.312C34.9924 21.84 36.0364 22.104 37.2844 22.104C38.2204 22.104 39.0244 21.972 39.6964 21.708C40.3924 21.444 41.0884 21.012 41.7844 20.412L45.3844 24.156C43.4884 26.268 40.7164 27.324 37.0684 27.324C34.7884 27.324 32.7844 26.892 31.0564 26.028C29.3284 25.164 27.9844 23.964 27.0244 22.428C26.0884 20.892 25.6204 19.152 25.6204 17.208C25.6204 15.288 26.0764 13.572 26.9884 12.06C27.9244 10.524 29.2084 9.324 30.8404 8.46C32.4724 7.596 34.3084 7.164 36.3484 7.164C38.2924 7.164 40.0564 7.572 41.6404 8.388C43.2244 9.18 44.4724 10.344 45.3844 11.88C46.3204 13.392 46.7884 15.192 46.7884 17.28ZM36.3844 12.024C35.3284 12.024 34.4404 12.324 33.7204 12.924C33.0244 13.524 32.5804 14.34 32.3884 15.372H40.3804C40.1884 14.34 39.7324 13.524 39.0124 12.924C38.3164 12.324 37.4404 12.024 36.3844 12.024ZM57.0341 27.324C55.4021 27.324 53.7941 27.144 52.2101 26.784C50.6261 26.4 49.3541 25.908 48.3941 25.308L50.4461 20.628C51.3341 21.18 52.3901 21.624 53.6141 21.96C54.8381 22.272 56.0501 22.428 57.2501 22.428C58.3541 22.428 59.1341 22.32 59.5901 22.104C60.0701 21.864 60.3101 21.528 60.3101 21.096C60.3101 20.664 60.0221 20.364 59.4461 20.196C58.8941 20.004 58.0061 19.824 56.7821 19.656C55.2221 19.464 53.8901 19.212 52.7861 18.9C51.7061 18.588 50.7701 18.012 49.9781 17.172C49.1861 16.332 48.7901 15.156 48.7901 13.644C48.7901 12.396 49.1621 11.292 49.9061 10.332C50.6501 9.348 51.7301 8.58 53.1461 8.028C54.5861 7.452 56.3021 7.164 58.2941 7.164C59.7101 7.164 61.1141 7.308 62.5061 7.596C63.8981 7.884 65.0621 8.292 65.9981 8.82L63.9461 13.464C62.2181 12.504 60.3461 12.024 58.3301 12.024C57.2501 12.024 56.4581 12.156 55.9541 12.42C55.4501 12.66 55.1981 12.984 55.1981 13.392C55.1981 13.848 55.4741 14.172 56.0261 14.364C56.5781 14.532 57.4901 14.712 58.7621 14.904C60.3701 15.144 61.7021 15.42 62.7581 15.732C63.8141 16.044 64.7261 16.62 65.4941 17.46C66.2861 18.276 66.6821 19.428 66.6821 20.916C66.6821 22.14 66.3101 23.244 65.5661 24.228C64.8221 25.188 63.7181 25.944 62.2541 26.496C60.8141 27.048 59.0741 27.324 57.0341 27.324ZM79.6016 27.324C77.4416 27.324 75.5096 26.892 73.8056 26.028C72.1016 25.164 70.7696 23.964 69.8096 22.428C68.8736 20.892 68.4056 19.152 68.4056 17.208C68.4056 15.264 68.8736 13.536 69.8096 12.024C70.7696 10.488 72.1016 9.3 73.8056 8.46C75.5096 7.596 77.4416 7.164 79.6016 7.164C81.8096 7.164 83.7176 7.644 85.3256 8.604C86.9336 9.54 88.0736 10.848 88.7456 12.528L83.4536 15.228C82.5656 13.476 81.2696 12.6 79.5656 12.6C78.3416 12.6 77.3216 13.008 76.5056 13.824C75.7136 14.64 75.3176 15.768 75.3176 17.208C75.3176 18.672 75.7136 19.824 76.5056 20.664C77.3216 21.48 78.3416 21.888 79.5656 21.888C81.2696 21.888 82.5656 21.012 83.4536 19.26L88.7456 21.96C88.0736 23.64 86.9336 24.96 85.3256 25.92C83.7176 26.856 81.8096 27.324 79.6016 27.324ZM111.841 7.488V27H105.325V24.912C104.605 25.704 103.741 26.304 102.733 26.712C101.725 27.12 100.657 27.324 99.529 27.324C97.009 27.324 94.993 26.58 93.481 25.092C91.993 23.604 91.249 21.372 91.249 18.396V7.488H98.089V17.28C98.089 18.744 98.365 19.812 98.917 20.484C99.469 21.156 100.273 21.492 101.329 21.492C102.409 21.492 103.285 21.12 103.957 20.376C104.653 19.608 105.001 18.444 105.001 16.884V7.488H111.841ZM136.191 17.28C136.191 17.328 136.155 17.892 136.083 18.972H121.899C122.187 19.98 122.739 20.76 123.555 21.312C124.395 21.84 125.439 22.104 126.687 22.104C127.623 22.104 128.427 21.972 129.099 21.708C129.795 21.444 130.491 21.012 131.187 20.412L134.787 24.156C132.891 26.268 130.119 27.324 126.471 27.324C124.191 27.324 122.187 26.892 120.459 26.028C118.731 25.164 117.387 23.964 116.427 22.428C115.491 20.892 115.023 19.152 115.023 17.208C115.023 15.288 115.479 13.572 116.391 12.06C117.327 10.524 118.611 9.324 120.243 8.46C121.875 7.596 123.711 7.164 125.751 7.164C127.695 7.164 129.459 7.572 131.043 8.388C132.627 9.18 133.875 10.344 134.787 11.88C135.723 13.392 136.191 15.192 136.191 17.28ZM125.787 12.024C124.731 12.024 123.843 12.324 123.123 12.924C122.427 13.524 121.983 14.34 121.791 15.372H129.783C129.591 14.34 129.135 13.524 128.415 12.924C127.719 12.324 126.843 12.024 125.787 12.024Z" fill="#1F4B4E"/>
<path d="M145.212 5.724V13.392H157.38V17.352H145.212V27H140.532V1.8H158.928V5.724H145.212ZM181.107 7.776V27H176.823V24.552C176.103 25.416 175.203 26.088 174.123 26.568C173.043 27.024 171.879 27.252 170.631 27.252C168.063 27.252 166.035 26.544 164.547 25.128C163.083 23.688 162.351 21.564 162.351 18.756V7.776H166.851V18.144C166.851 19.872 167.235 21.168 168.003 22.032C168.795 22.872 169.911 23.292 171.351 23.292C172.959 23.292 174.231 22.8 175.167 21.816C176.127 20.808 176.607 19.368 176.607 17.496V7.776H181.107ZM197.907 7.56C200.331 7.56 202.275 8.268 203.739 9.684C205.203 11.1 205.935 13.2 205.935 15.984V27H201.435V16.56C201.435 14.88 201.039 13.62 200.247 12.78C199.455 11.916 198.327 11.484 196.863 11.484C195.207 11.484 193.899 11.988 192.939 12.996C191.979 13.98 191.499 15.408 191.499 17.28V27H186.999V7.776H191.283V10.26C192.027 9.372 192.963 8.7 194.091 8.244C195.219 7.788 196.491 7.56 197.907 7.56ZM230.647 0.287998V27H226.327V24.516C225.583 25.428 224.659 26.112 223.555 26.568C222.475 27.024 221.275 27.252 219.955 27.252C218.107 27.252 216.439 26.844 214.951 26.028C213.487 25.212 212.335 24.06 211.495 22.572C210.655 21.06 210.235 19.332 210.235 17.388C210.235 15.444 210.655 13.728 211.495 12.24C212.335 10.752 213.487 9.6 214.951 8.784C216.439 7.968 218.107 7.56 219.955 7.56C221.227 7.56 222.391 7.776 223.447 8.208C224.503 8.64 225.403 9.288 226.147 10.152V0.287998H230.647ZM220.495 23.4C221.575 23.4 222.547 23.16 223.411 22.68C224.275 22.176 224.959 21.468 225.463 20.556C225.967 19.644 226.219 18.588 226.219 17.388C226.219 16.188 225.967 15.132 225.463 14.22C224.959 13.308 224.275 12.612 223.411 12.132C222.547 11.628 221.575 11.376 220.495 11.376C219.415 11.376 218.443 11.628 217.579 12.132C216.715 12.612 216.031 13.308 215.527 14.22C215.023 15.132 214.771 16.188 214.771 17.388C214.771 18.588 215.023 19.644 215.527 20.556C216.031 21.468 216.715 22.176 217.579 22.68C218.443 23.16 219.415 23.4 220.495 23.4Z" fill="#298288"/>
</svg>
