<svg id="Layer_1" data-name="Layer 1" xmlns="http://www.w3.org/2000/svg" viewBox="0 0 214.5 216.71"><defs><style>.cls-1,.cls-4,.cls-5{fill:none;}.cls-1{stroke:#000;stroke-miterlimit:10;stroke-width:0.25px;}.cls-2{opacity:0.7;}.cls-3{fill:#202020;}.cls-4{stroke:#959595;}.cls-4,.cls-5{stroke-width:0.02px;}.cls-5{stroke:#202020;}.cls-6{font-size:18px;fill:#666;font-family:MoolBoran, MoolBoran;}.cls-7{font-size:10px;font-family:GlacialIndifference-Regular, Glacial Indifference;}</style></defs><title>portfolio-logo1</title><path class="cls-1" d="M560.33,348.67" transform="translate(-538.48 -334.34)"/><g class="cls-2"><path class="cls-3" d="M702.23,336.09s2.32-1.33,1.59,1.58l.28,2.51,1.51,2.12-.93,1.59-1.64-.25-2.81-.47c-1.26-.19-2.86-.37-4.88-.65a143.66,143.66,0,0,0-18.08-1.13h-3.21l-3.43.14c-1.18.06-2.41.08-3.68.17L663,342l-2.06.18-2.11.27-4.41.57c-3,.56-6.23,1-9.57,1.83l-1,.24c-.63.17-1.59.35-2.8.71l-4.44,1.27c-1.75.47-3.69,1.2-5.87,1.88-1.1.34-2.23.77-3.4,1.22l-3.69,1.37c-1.26.5-2.55,1.07-3.9,1.63s-2.74,1.14-4.13,1.83l-4.31,2-4.43,2.33-1.12.59c-.34.2-.68.38-1,.59a22.87,22.87,0,0,0-1.92,1.28,15.92,15.92,0,0,0-3.15,2.91l-.26.33a3.93,3.93,0,0,0-.27.4,3.25,3.25,0,0,0-.31.52,3.56,3.56,0,0,0-.42,1.25,2.72,2.72,0,0,0,.18,1.42,5.8,5.8,0,0,0,1.74,2.06,13.25,13.25,0,0,0,1.75,1.2c.7.4,1.49.81,2.32,1.2,3.36,1.57,7.71,2.75,12.89,4.25,1.3.38,2.64.8,4,1.27s2.85,1.06,4.29,1.71a34.26,34.26,0,0,1,8.58,5.43,22.06,22.06,0,0,1,6.49,9.66,25.53,25.53,0,0,1,.69,11.76,52.12,52.12,0,0,1-3,10.62,96.55,96.55,0,0,1-4.44,9.92,176.28,176.28,0,0,1-11.33,18.64C606.42,470.49,587,492.55,572,510c-7.54,8.71-14,16.27-18.91,22.08s-8.22,9.85-9.61,11.38l3.74-4.61c2.39-2.93,5.84-7.11,10.07-12.1,8.43-10,20.06-23.16,31.64-36.84s22.94-28,31.1-39.86c4.1-5.9,7.5-11.12,9.89-15.24a87.83,87.83,0,0,0,4.28-8.07s-1,1.94-2.81,5.21-4.66,7.82-8.25,13.07c-7.14,10.54-17.42,24.14-28.53,37.35s-22.72,26.34-31.79,36.77-15.66,18.15-17.4,20c0,0,5-6.23,12.93-15.52S577.1,502,587.93,489.14c5.42-6.42,10.79-13,15.8-19.43s9.57-12.66,13.52-18.29c2-2.82,3.72-5.52,5.35-8s3-4.74,4.2-6.76a73.25,73.25,0,0,0,4.39-8.37s-.88,1.67-2.57,4.52-4.2,6.86-7.44,11.53c-6.39,9.41-15.63,21.62-25.69,33.69S574.73,502.21,566.05,512s-15.34,17.37-17.81,20l7.86-9.21c4.2-4.87,8.9-10.3,10.81-12.66l-7.1,7.84,11-13,6.56-7.32-9.12,10c-4.66,5.08-9.49,10.34-10.25,10.92,0,0-1.86,2.41.13.19s7.89-9,23.31-27.45l3.43-3.93,4.17-4.85,5.65-6.76c4.2-5.16,9.37-11.53,15.1-19.3,2.84-3.89,5.87-8.1,8.94-12.7s6.27-9.53,9.24-15a87.72,87.72,0,0,0,7.57-18,27.88,27.88,0,0,0,1.09-10.27,15.92,15.92,0,0,0-4.43-9.51,26.73,26.73,0,0,0-9.33-6.07,89.1,89.1,0,0,0-11.26-3.48,57.22,57.22,0,0,1-11.78-4.22,16.84,16.84,0,0,1-5.34-4.08,9.6,9.6,0,0,1-1.75-3.17,8.77,8.77,0,0,1-.33-3.71,12.11,12.11,0,0,1,3.22-6.46,26.74,26.74,0,0,1,5.37-4.5c2-1.29,4-2.25,6-3.37s4.1-2.07,6.18-3.1a153.86,153.86,0,0,1,27-9.74,157.31,157.31,0,0,1,30-4.62A152,152,0,0,1,702.23,336.09Z" transform="translate(-538.48 -334.34)"/><path class="cls-4" d="M706.13,345l-3-.57-3.55-.67-4.83-.69a141.5,141.5,0,0,0-30.08-.73,138.28,138.28,0,0,0-19.77,2.95,143.85,143.85,0,0,0-21.21,6.37c-1.78.71-3.55,1.47-5.34,2.21s-3.53,1.65-5.31,2.46-3.5,1.81-5.26,2.71a32.57,32.57,0,0,0-4.71,2.83,15.39,15.39,0,0,0-3.37,3.23,5.24,5.24,0,0,0-.82,1.49,4.69,4.69,0,0,0-.17.6c0,.17,0,.34,0,.5a2.22,2.22,0,0,0,.07.49,2.5,2.5,0,0,0,.18.47,4.63,4.63,0,0,0,.87,1.13,14.05,14.05,0,0,0,3.75,2.45s.42.22,1.25.6,2.11.9,3.84,1.5,4,1.23,6.67,2a82.4,82.4,0,0,1,9.54,3.19,34,34,0,0,1,11,7.2,22.47,22.47,0,0,1,4.51,6.55,22.2,22.2,0,0,1,1.87,8.12,39.75,39.75,0,0,1-2.82,15.24,99.1,99.1,0,0,1-6.12,13.59,241.68,241.68,0,0,1-15.69,24.5c-5.41,7.65-10.87,14.72-15.83,20.93-9.93,12.42-17.8,21.47-20.34,24.41,0,0-6.83,8-15.7,18.32s-19.6,23-27.34,32.7" transform="translate(-538.48 -334.34)"/><path class="cls-5" d="M633.14,430.67c.75-1.33,2.08-3.76,3.64-7.14.76-1.69,1.6-3.61,2.4-5.77a60.24,60.24,0,0,0,2.28-7.26,33.05,33.05,0,0,0,1-9.2,22.89,22.89,0,0,0-.85-5.24,20.92,20.92,0,0,0-2.24-5.17,25.67,25.67,0,0,0-7.61-7.8,40.77,40.77,0,0,0-9-4.53c-6.09-2.17-11.68-3.28-16.11-5a25.84,25.84,0,0,1-5.57-2.87,7.35,7.35,0,0,1-1.52-1.42,3.19,3.19,0,0,1-.56-1.05,2.65,2.65,0,0,1,.29-1.91,9.28,9.28,0,0,1,1.61-2.16,15,15,0,0,1,1.61-1.42,7.77,7.77,0,0,1,.63-.49c.72-.53,1.54-1,2.39-1.54l.66-.37.77-.4,1.57-.81,3.26-1.7,3.49-1.62c2.35-1.16,4.88-2.13,7.45-3.22,1.28-.55,2.63-1,4-1.48s2.68-1,4.08-1.44l4.18-1.32c1.4-.46,2.85-.79,4.28-1.19,2.85-.83,5.78-1.4,8.68-2.07,1.46-.29,2.93-.53,4.39-.8l2.18-.39,2.18-.29,4.33-.59,4.27-.38a144.85,144.85,0,0,1,29,.47l5,.67c1.47.22,2.72.49,3.75.66l3.19.58" transform="translate(-538.48 -334.34)"/><path class="cls-5" d="M629.57,432.08s-3.24,5.79-9,14.12-13.94,19.43-23,30.62-19,22.6-27.47,32.36-15.42,17.9-19.09,22.22" transform="translate(-538.48 -334.34)"/><path class="cls-4" d="M636.45,403.48s0,.46-.1,1.3a32.59,32.59,0,0,1-.61,3.67,66.61,66.61,0,0,1-4.57,12.66c-4.65,10.25-13.27,22.85-22.5,35.28S589.22,481,581,490.5s-14.39,16.55-16.08,18.41" transform="translate(-538.48 -334.34)"/></g><g class="cls-2"><path class="cls-3" d="M635.38,371.82s-1.79,0,1.19-.34l2.37-.36,1.72-.41,1.75-.15s.56.47,2.26,6.27a16,16,0,0,1,1.66,5.43s2.25,23.21,1.41,25.07c0,0-.24-14.69-.82-15.55,0,0,.43,14-.39,15.2,0,0-.21-13.62-1.56-14.68,0,0,.19,12.55-.84,14.19a13.57,13.57,0,0,0,0-3.05l-.23,1.15-.16-1.79.15-1.06s-.49,2.89-.89,3.13c0,0,.66,1.21-.13-3.8C642.84,401.07,644.34,388.8,635.38,371.82Z" transform="translate(-538.48 -334.34)"/><path class="cls-4" d="M643.13,370.29s2.22,7,3.86,13.93c0,0,1.6,15.21,1.5,16.87a36.21,36.21,0,0,1,0,7.12" transform="translate(-538.48 -334.34)"/><path class="cls-5" d="M647.79,392.09c.14-1.26-1.15-10.45-1.15-10.45-.35-3.69-3.51-11.35-3.51-11.35" transform="translate(-538.48 -334.34)"/><path class="cls-5" d="M645.4,392.68s.61,10.94.41,13.38" transform="translate(-538.48 -334.34)"/><path class="cls-4" d="M641.65,390s.44,12.63.18,13.73" transform="translate(-538.48 -334.34)"/></g><g class="cls-2"><path class="cls-3" d="M648.22,402.19a2.48,2.48,0,0,0,.26-.52l0-.1v0l.05-.28a2.48,2.48,0,0,0-.36-1.73,7.63,7.63,0,0,1,.09-1.78,3,3,0,0,1,.55,0,4.12,4.12,0,0,1,2,.6,5.6,5.6,0,0,1,1.21,1,3.11,3.11,0,0,1,.29.33l.25.32a2.12,2.12,0,0,1,.2.24c.25.31.37.79.9,1a1.36,1.36,0,0,0,1.37-.56c.2-.21.38-.45.57-.65l0,0h0s-.1,0-.08,0l.16-.11.32-.24c.23-.16.45-.33.68-.48.47-.29,1-.61,1.48-.89l.26-.17a7.36,7.36,0,0,1,.77-.46,22.43,22.43,0,0,1,3-1.41,37.6,37.6,0,0,1,10.16-2.17s3.49-.28,8.81-.58,12.44-.57,19.7-.59c14.54-.11,29.55,1,31.61,1.69,0,0-2.18-.21-5.49-.49s-7.76-.57-12.28-.78c-9-.44-18.38-.39-19.47-.11,0,0,8.4,0,17.09.49s17.67,1.45,18.92,2c0,0-8.07-.78-16.54-1.07s-17.3-.09-18.72.56c0,0,7.47.07,15.36.58s16.19,1.45,18,2.16c0,0-1.42-.19-3-.35a34.14,34.14,0,0,0-4.18-.26l2.64.46-4.26-.18-2.46-.34s1.67.24,3.39.55a16,16,0,0,1,3.71.91s.77-.1,0-.23a71.29,71.29,0,0,0-9-.32s-1.62-.19-4.68-.38-7.54-.31-13.26-.13a182.15,182.15,0,0,0-20.6,1.86,70.07,70.07,0,0,0-12.26,2.6,18.41,18.41,0,0,0-5.43,2.92l-1.67,1.45a13.57,13.57,0,0,1-2.32,1.69,7.27,7.27,0,0,1-2.57.88,5.7,5.7,0,0,1-2.76-.39,6.84,6.84,0,0,1-3-2.56,11.2,11.2,0,0,1-1.16-2.24l0-.08v0h0l.47-.29h0l0,0,.14-.09c.1-.08.23-.18.36-.3A4.37,4.37,0,0,0,648.22,402.19Z" transform="translate(-538.48 -334.34)"/><path class="cls-4" d="M646.88,397.32l.26-.1a4.15,4.15,0,0,1,.9-.22,4.71,4.71,0,0,1,1.6.07,5.42,5.42,0,0,1,1.74.78,6.58,6.58,0,0,1,1.4,1.34c.1.13.2.27.29.41l.1.13.12.2a1.88,1.88,0,0,0,.62.89.89.89,0,0,0,.66-.13,2.47,2.47,0,0,0,.62-.59l.26-.34.06-.08h0l-.09.05,0,0,.09-.07.2-.14.8-.57a24.14,24.14,0,0,1,3.67-2,38.19,38.19,0,0,1,8.45-2.44c2.93-.53,5.73-.87,8.57-1.24,0,0,9.19-.68,18.89-.89s19.88,0,21.84.22c0,0,2.67.07,6.12.3a105.68,105.68,0,0,1,10.81,1.2" transform="translate(-538.48 -334.34)"/><path class="cls-5" d="M696.25,392.37c-1.49-.09-7.82.1-13.76.51-3,.2-5.85.44-8,.63l-3.56.34a35.72,35.72,0,0,0-11,2.71,22.18,22.18,0,0,0-3.07,1.64c-.5.3-1,.65-1.45,1l-.18.13,0,0h0l.09-.06s0,0,0,0l0,.06-.08.13a2.55,2.55,0,0,1-.42.58.82.82,0,0,1-.66.26,1,1,0,0,1-.58-.46,2.15,2.15,0,0,0-.25-.29s-.28-.37-.46-.58a7.4,7.4,0,0,0-.68-.69,5.78,5.78,0,0,0-1.68-1.06,4.73,4.73,0,0,0-1.9-.34,4.3,4.3,0,0,0-1.27.23c-.27.09-.4.15-.4.15" transform="translate(-538.48 -334.34)"/><path class="cls-5" d="M697.05,394.79s6.55,0,13.81.21,15.2.81,18,1.2" transform="translate(-538.48 -334.34)"/><path class="cls-4" d="M689.84,398.48s7.48-.11,15.26.13,15.85.78,17.1,1" transform="translate(-538.48 -334.34)"/></g><text class="cls-6" transform="translate(117.52 89.66)">SHANNON BAKER<tspan class="cls-7" x="94.28" y="0"> </tspan></text></svg>