<svg width="110" height="81" viewBox="0 0 110 81" fill="none" xmlns="http://www.w3.org/2000/svg">
<path d="M41.0459 42.127C41.0459 42.4199 40.9756 42.7158 40.835 43.0146C40.6943 43.3076 40.4922 43.5742 40.2285 43.8145C39.9648 44.0488 39.6455 44.2422 39.2705 44.3945C38.9014 44.541 38.4854 44.6143 38.0225 44.6143C37.7764 44.6143 37.5479 44.5996 37.3369 44.5703C37.126 44.541 36.9268 44.5029 36.7393 44.4561C36.5576 44.4033 36.3818 44.3418 36.2119 44.2715C36.042 44.1953 35.8721 44.1133 35.7021 44.0254L36.0889 42.8213C36.2002 42.8975 36.3467 42.9795 36.5283 43.0674C36.7158 43.1553 36.918 43.2373 37.1348 43.3135C37.3516 43.3896 37.5684 43.4541 37.7852 43.5068C38.0078 43.5537 38.21 43.5771 38.3916 43.5771C38.5967 43.5771 38.7637 43.5654 38.8926 43.542C39.0273 43.5127 39.1475 43.4746 39.2529 43.4277C39.3701 43.3809 39.4639 43.2637 39.5342 43.0762C39.6045 42.8887 39.6396 42.6455 39.6396 42.3467C39.6396 42.0713 39.5488 41.8516 39.3672 41.6875C39.1855 41.5234 38.957 41.3828 38.6816 41.2656C38.4121 41.1426 38.1191 41.0225 37.8027 40.9053C37.4863 40.7822 37.1904 40.627 36.915 40.4395C36.6455 40.2461 36.4199 40 36.2383 39.7012C36.0566 39.4023 35.9658 39.0098 35.9658 38.5234C35.9658 38.2891 36.0273 38.043 36.1504 37.7852C36.2734 37.5215 36.4521 37.2812 36.6865 37.0645C36.9209 36.8418 37.2109 36.6602 37.5566 36.5195C37.9023 36.3789 38.2949 36.3086 38.7344 36.3086C39.0859 36.3086 39.4229 36.3262 39.7451 36.3613C40.0732 36.3965 40.3896 36.4434 40.6943 36.502L40.4482 37.7061C40.3076 37.6533 40.1465 37.6035 39.9648 37.5566C39.7891 37.5098 39.6074 37.4688 39.4199 37.4336C39.2383 37.3984 39.0596 37.3721 38.8838 37.3545C38.708 37.3311 38.5527 37.3193 38.418 37.3193C38.2656 37.3193 38.125 37.3281 37.9961 37.3457C37.8672 37.3574 37.75 37.3955 37.6445 37.46C37.5449 37.5186 37.4717 37.6211 37.4248 37.7676C37.3838 37.9082 37.3633 38.0781 37.3633 38.2773C37.3633 38.4824 37.416 38.6523 37.5215 38.7871C37.627 38.9219 37.7646 39.042 37.9346 39.1475C38.1104 39.2471 38.3066 39.3408 38.5234 39.4287C38.7461 39.5107 38.9717 39.6016 39.2002 39.7012C39.4346 39.7949 39.6602 39.9062 39.877 40.0352C40.0996 40.1582 40.2959 40.3135 40.4658 40.501C40.6416 40.6826 40.7822 40.9053 40.8877 41.1689C40.9932 41.4326 41.0459 41.752 41.0459 42.127ZM47.8964 44.5V40.8525H44.416V44.5H42.8515V36.3965H44.416V39.9473H47.8964V36.3965H49.4697V44.5H47.8964ZM56.6718 44.5L55.7665 41.7666L52.8661 41.8105L51.9345 44.5H50.9413L53.9911 36.4668L55.5116 36.1943L58.3505 44.5H56.6718ZM55.5204 41.002L54.3515 37.5039L53.1474 41.002H55.5204ZM66.1151 44.5439L60.6747 38.8574H60.6571C60.6688 39.332 60.6805 39.7686 60.6923 40.167C60.6981 40.3369 60.7011 40.5068 60.7011 40.6768C60.7069 40.8467 60.7098 41.0049 60.7098 41.1514C60.7157 41.292 60.7186 41.418 60.7186 41.5293C60.7186 41.6406 60.7186 41.7197 60.7186 41.7666V44.5H59.8046V36.3438H60.4901L65.9305 42.0039C65.9247 41.5703 65.9188 41.1631 65.913 40.7822C65.913 40.6182 65.91 40.4541 65.9042 40.29C65.9042 40.1201 65.9012 39.959 65.8954 39.8066C65.8954 39.6543 65.8954 39.5166 65.8954 39.3936C65.8954 39.2646 65.8954 39.1621 65.8954 39.0859V36.4053H66.8182V44.5439H66.1151ZM77.4432 42.3115C77.4432 42.6689 77.3846 42.9883 77.2674 43.2695C77.1561 43.5508 76.9803 43.791 76.74 43.9902C76.5057 44.1836 76.2068 44.333 75.8436 44.4385C75.4803 44.5381 75.0467 44.5879 74.5428 44.5879C74.3787 44.5879 74.1883 44.585 73.9715 44.5791C73.7547 44.5732 73.5291 44.5645 73.2947 44.5527C73.0662 44.5469 72.8406 44.5352 72.618 44.5176C72.4012 44.5 72.2107 44.4824 72.0467 44.4648V36.458C72.3572 36.4229 72.7117 36.3965 73.1102 36.3789C73.5086 36.3613 73.8836 36.3525 74.2352 36.3525C74.6629 36.3525 75.0525 36.3906 75.4041 36.4668C75.7557 36.5371 76.0545 36.6514 76.3006 36.8096C76.5525 36.9619 76.7459 37.1611 76.8807 37.4072C77.0154 37.6475 77.0828 37.9375 77.0828 38.2773C77.0828 38.5527 77.0447 38.7959 76.9686 39.0068C76.8924 39.2119 76.7898 39.3936 76.6609 39.5518C76.5379 39.7041 76.3914 39.8301 76.2215 39.9297C76.0516 40.0234 75.8758 40.0938 75.6941 40.1406V40.167C76.0047 40.2314 76.2684 40.3311 76.4852 40.4658C76.7078 40.6006 76.8895 40.7617 77.0301 40.9492C77.1707 41.1309 77.2732 41.3389 77.3377 41.5732C77.408 41.8018 77.4432 42.0479 77.4432 42.3115ZM75.492 38.4619C75.492 37.9814 75.3602 37.6475 75.0965 37.46C74.8387 37.2666 74.4725 37.1699 73.9979 37.1699C73.9275 37.1699 73.8572 37.1729 73.7869 37.1787C73.7225 37.1787 73.6639 37.1816 73.6111 37.1875V39.7979H74.1297C74.3113 39.7979 74.493 39.7803 74.6746 39.7451C74.8563 39.71 74.9969 39.666 75.0965 39.6133C75.1434 39.584 75.1902 39.5459 75.2371 39.499C75.284 39.4463 75.325 39.376 75.3602 39.2881C75.4012 39.2002 75.4334 39.0889 75.4568 38.9541C75.4803 38.8193 75.492 38.6553 75.492 38.4619ZM75.8436 42.2148C75.8436 41.6875 75.6941 41.2891 75.3953 41.0195C75.1023 40.75 74.6717 40.6152 74.1033 40.6152H73.6111V43.7266C73.658 43.7324 73.6961 43.7383 73.7254 43.7441C73.7605 43.7441 73.7957 43.7471 73.8309 43.7529C73.866 43.7529 73.91 43.7529 73.9627 43.7529C74.0154 43.7529 74.0916 43.7529 74.1912 43.7529C74.285 43.7529 74.3875 43.75 74.4988 43.7441C74.616 43.7324 74.7273 43.7207 74.8328 43.709C74.9441 43.6914 75.0438 43.6709 75.1316 43.6475C75.2254 43.624 75.2986 43.5977 75.3514 43.5684C75.4041 43.5332 75.4598 43.4863 75.5184 43.4277C75.577 43.3691 75.6297 43.29 75.6766 43.1904C75.7293 43.085 75.7703 42.9561 75.7996 42.8037C75.8289 42.6455 75.8436 42.4492 75.8436 42.2148ZM84.1267 44.5L83.2214 41.7666L80.3211 41.8105L79.3894 44.5H78.3962L81.4461 36.4668L82.9666 36.1943L85.8054 44.5H84.1267ZM82.9753 41.002L81.8064 37.5039L80.6023 41.002H82.9753ZM93.4997 36.9414C93.3591 36.9414 93.2243 36.9619 93.0954 37.0029C92.9665 37.0381 92.8347 37.0967 92.6999 37.1787C92.5652 37.2607 92.4216 37.3691 92.2693 37.5039C92.1228 37.6328 91.9616 37.791 91.7859 37.9785C91.5925 38.1836 91.3874 38.4121 91.1706 38.6641C90.9597 38.9102 90.7312 39.1768 90.4851 39.4639C90.8073 40.1201 91.115 40.7207 91.4079 41.2656C91.7068 41.8105 91.9968 42.2822 92.278 42.6807C92.5652 43.0732 92.8493 43.3809 93.1306 43.6035C93.4118 43.8203 93.7048 43.9287 94.0095 43.9287H94.1062V44.4473C93.9362 44.4941 93.7634 44.5293 93.5876 44.5527C93.4118 44.5762 93.2068 44.5879 92.9724 44.5879C92.5915 44.5879 92.2605 44.5234 91.9792 44.3945C91.698 44.2656 91.4284 44.0488 91.1706 43.7441C90.9128 43.4336 90.6462 43.0264 90.3708 42.5225C90.1013 42.0127 89.7907 41.3828 89.4392 40.6328C89.3982 40.6797 89.3484 40.7383 89.2898 40.8086C89.237 40.873 89.1784 40.9404 89.114 41.0107C89.0554 41.0811 88.9997 41.1514 88.947 41.2217C88.8943 41.2861 88.8532 41.3359 88.8239 41.3711V44.5H87.2595V36.3965H88.8239V40.1934C88.9763 40.0117 89.1579 39.7861 89.3689 39.5166C89.5857 39.2471 89.8054 38.9717 90.028 38.6904C90.2566 38.4092 90.4734 38.1426 90.6784 37.8906C90.8894 37.6387 91.0652 37.4365 91.2058 37.2842C91.3874 37.085 91.5515 36.9268 91.698 36.8096C91.8445 36.6865 91.988 36.5957 92.1286 36.5371C92.2751 36.4727 92.4245 36.4316 92.5769 36.4141C92.7292 36.3965 92.905 36.3877 93.1042 36.3877C93.1862 36.3877 93.28 36.3936 93.3855 36.4053C93.4968 36.4111 93.573 36.4229 93.614 36.4404V36.9414H93.4997ZM100.043 44.5H95.4108V36.3965H99.8845L99.8054 37.2227L96.9753 37.2578V39.8945L99.6384 39.9297L99.568 40.6768L96.9753 40.7383V43.6387L100.113 43.7002L100.043 44.5ZM104.019 41.1602H103.492V44.5H101.927V36.4141C102.244 36.3906 102.601 36.3701 103 36.3525C103.398 36.335 103.779 36.3262 104.142 36.3262C105.074 36.3262 105.78 36.5049 106.26 36.8623C106.747 37.2197 106.99 37.7793 106.99 38.541C106.99 38.8809 106.949 39.1768 106.867 39.4287C106.785 39.6807 106.676 39.9004 106.542 40.0879C106.407 40.2754 106.252 40.4336 106.076 40.5625C105.9 40.6914 105.715 40.7998 105.522 40.8877C105.751 41.3037 105.967 41.6963 106.173 42.0654C106.383 42.4346 106.591 42.7568 106.797 43.0322C107.007 43.3076 107.218 43.5273 107.429 43.6914C107.646 43.8496 107.878 43.9287 108.124 43.9287H108.176V44.4473C108.053 44.4883 107.91 44.5205 107.746 44.5439C107.588 44.5732 107.409 44.5879 107.21 44.5879C106.923 44.5879 106.671 44.5615 106.454 44.5088C106.243 44.4561 106.035 44.3418 105.83 44.166C105.631 43.9902 105.423 43.7324 105.206 43.3926C104.989 43.0527 104.737 42.5928 104.45 42.0127L104.019 41.1602ZM103.773 40.3604C103.99 40.3604 104.198 40.334 104.397 40.2812C104.602 40.2227 104.763 40.1523 104.881 40.0703C104.939 40.0293 104.998 39.9766 105.056 39.9121C105.115 39.8477 105.168 39.7627 105.214 39.6572C105.261 39.5518 105.299 39.417 105.329 39.2529C105.358 39.0889 105.373 38.8838 105.373 38.6377C105.373 38.3623 105.34 38.1309 105.276 37.9434C105.217 37.7559 105.127 37.6064 105.004 37.4951C104.881 37.3779 104.728 37.2959 104.547 37.249C104.365 37.1963 104.157 37.1699 103.923 37.1699C103.858 37.1699 103.785 37.1729 103.703 37.1787C103.627 37.1787 103.556 37.1846 103.492 37.1963V40.3604H103.773Z" fill="#666666"/>
<g opacity="0.7">
<path opacity="0.7" d="M57.0573 0.683256C57.0573 0.683256 57.8512 0.192583 57.6014 1.26617L57.6972 2.19219L58.214 2.97432L57.8957 3.56093L57.3345 3.4687L56.3729 3.2953C55.9417 3.2252 55.3942 3.15879 54.7029 3.05549C52.6507 2.77633 50.5843 2.6371 48.5158 2.6386H47.4173L46.2436 2.69025C45.8398 2.71238 45.4189 2.71977 44.9843 2.75297L43.6325 2.86364L42.9276 2.93005L42.2055 3.02967L40.6964 3.23995C39.6698 3.44655 38.5644 3.60889 37.4215 3.9151L37.0793 4.00364C36.8637 4.06636 36.5352 4.13277 36.1211 4.26558L34.6017 4.73413C34.0028 4.90753 33.3389 5.17685 32.5929 5.42773C32.2165 5.55316 31.8298 5.7118 31.4294 5.87782L30.1667 6.38326C29.7355 6.56772 29.2941 6.77802 28.8321 6.98462C28.3701 7.19122 27.8944 7.4052 27.4188 7.65976L25.9438 8.39762L24.4279 9.25723L24.0446 9.47491C23.9282 9.54869 23.8119 9.6151 23.7024 9.69258C23.4761 9.83797 23.2569 9.99558 23.0454 10.1648C22.6428 10.4686 22.2802 10.8298 21.9674 11.2384L21.8784 11.3601C21.8448 11.4072 21.814 11.4565 21.786 11.5077C21.7452 11.568 21.7097 11.6322 21.6799 11.6996C21.6058 11.8423 21.5571 11.9987 21.5362 12.1607C21.513 12.3382 21.5343 12.519 21.5978 12.6846C21.7382 12.9849 21.9421 13.2452 22.1932 13.4446C22.3816 13.6092 22.5818 13.7573 22.7921 13.8873C23.0317 14.0349 23.302 14.1862 23.586 14.33C24.7358 14.9093 26.2245 15.3446 27.9971 15.898C28.442 16.0382 28.9005 16.1932 29.3659 16.3666C29.8313 16.54 30.3412 16.7576 30.834 16.9974C31.8996 17.5043 32.8891 18.1794 33.7701 19.0007C34.793 19.9529 35.56 21.1837 35.991 22.5646C36.3824 23.9712 36.4633 25.457 36.2272 26.9032C36.0145 28.2448 35.6704 29.5581 35.2005 30.8213C34.7582 32.071 34.2509 33.2929 33.6811 34.4811C32.5217 36.8575 31.2268 39.1542 29.804 41.358C24.2705 50.2677 17.6248 58.4063 12.4917 64.8442C9.91144 68.0576 7.7008 70.8467 6.02056 72.9902C4.34032 75.1337 3.2076 76.6242 2.73193 77.1887L4.01178 75.4879C4.82966 74.4069 6.01028 72.8648 7.45781 71.0238C10.3426 67.3345 14.3225 62.4793 18.2852 57.4324C22.248 52.3854 26.1355 47.1023 28.9279 42.7267C30.331 40.55 31.4944 38.6242 32.3123 37.1042C32.8481 36.1398 33.337 35.1461 33.777 34.1269C33.777 34.1269 33.4348 34.8427 32.8154 36.0491C32.196 37.2555 31.2207 38.9341 29.9922 40.871C27.5488 44.7595 24.0309 49.777 20.229 54.6506C16.4271 59.5242 12.454 64.3683 9.35023 68.2162C6.24641 72.0642 3.99126 74.9124 3.39582 75.5949C3.39582 75.5949 5.10685 73.2964 7.82055 69.869C10.5343 66.4417 14.2369 61.8927 17.943 57.1483C19.7978 54.7797 21.6355 52.3522 23.3499 49.9799C25.0644 47.6077 26.6248 45.3093 27.9766 43.2322C28.661 42.1918 29.2496 41.1957 29.8074 40.2807C30.3652 39.3658 30.834 38.532 31.2446 37.7867C31.8065 36.7934 32.3083 35.7619 32.7469 34.6988C32.7469 34.6988 32.4458 35.3149 31.8674 36.3663C31.2891 37.4178 30.4302 38.8972 29.3214 40.6201C27.1347 44.0918 23.9727 48.5964 20.5301 53.0494C17.0875 57.5025 13.4259 61.9702 10.4555 65.5821C7.48519 69.1939 5.20609 71.9904 4.36084 72.9607L7.05059 69.5628C8.48785 67.7661 10.0962 65.7628 10.7498 64.8922L8.32018 67.7846L12.0845 62.9885L14.3293 60.2879L11.2084 63.9772C9.61372 65.8514 7.96086 67.792 7.70079 68.0059C7.70079 68.0059 7.06428 68.8951 7.74528 68.076C8.42627 67.257 10.4453 64.7557 15.7221 57.9489L16.8959 56.499L18.3229 54.7096L20.2564 52.2157C21.6936 50.312 23.4628 47.9619 25.4237 45.0953C26.3956 43.6601 27.4324 42.1069 28.483 40.4098C29.5336 38.7127 30.6287 36.8939 31.645 34.8759C32.7351 32.7731 33.6039 30.5457 34.2355 28.2351C34.5776 27.0082 34.7042 25.7232 34.6085 24.4462C34.4854 23.1256 33.9511 21.8889 33.0926 20.9376C32.1858 19.9579 31.098 19.1949 29.8998 18.6982C28.643 18.179 27.3558 17.7501 26.0465 17.4143C24.654 17.0558 23.3022 16.5337 22.0153 15.8574C21.3186 15.4931 20.6971 14.9812 20.1879 14.3522C19.9213 14.0068 19.7181 13.6099 19.5891 13.1827C19.4609 12.7404 19.4224 12.2736 19.4761 11.8139C19.6102 10.9172 19.9946 10.0858 20.578 9.43063C21.1204 8.79274 21.7383 8.23455 22.4157 7.77043C23.1001 7.29451 23.7845 6.94034 24.4689 6.52714C25.1533 6.11393 25.872 5.76344 26.5838 5.38344C29.553 3.87787 32.6464 2.67484 35.8234 1.79005C39.1865 0.866457 42.6245 0.295648 46.0896 0.0855882C49.7548 -0.132978 53.4312 0.06736 57.0573 0.683256V0.683256Z" fill="#202020"/>
<path opacity="0.7" d="M58.3916 3.97062L57.3649 3.76033L56.1501 3.51315L54.4972 3.25859C51.0847 2.77465 47.634 2.68436 44.2036 2.98926C41.9271 3.17562 39.6661 3.53935 37.4382 4.07761C34.9664 4.65874 32.5398 5.44443 30.18 6.42771C29.5709 6.68965 28.9652 6.97004 28.3526 7.24305C27.7401 7.51605 27.1446 7.85178 26.5355 8.15061C25.9264 8.44945 25.3378 8.81839 24.7355 9.15043C24.1719 9.44889 23.6327 9.79815 23.1237 10.1945C22.6853 10.5262 22.2964 10.928 21.9705 11.3862C21.8498 11.5517 21.755 11.7374 21.6898 11.9359C21.6659 12.0082 21.6465 12.0821 21.6317 12.1572C21.6317 12.2199 21.6317 12.2827 21.6317 12.3417C21.6334 12.4027 21.6414 12.4634 21.6556 12.5225C21.6707 12.5823 21.6913 12.6404 21.7172 12.6959C21.7959 12.8506 21.8963 12.9912 22.0149 13.1128C22.3951 13.4861 22.8284 13.7913 23.2982 14.0166C23.2982 14.0166 23.442 14.0978 23.726 14.238C24.01 14.3782 24.448 14.57 25.04 14.7914C25.6321 15.0127 26.4089 15.2452 27.3226 15.5293C28.432 15.8495 29.5223 16.2425 30.5872 16.7061C31.9903 17.3191 33.269 18.2214 34.3515 19.3625C34.9951 20.0626 35.5178 20.8809 35.8949 21.779C36.2816 22.725 36.4988 23.7415 36.5348 24.7747C36.5584 26.699 36.2305 28.6095 35.5698 30.3972C34.9894 32.1228 34.2893 33.7988 33.4755 35.411C31.8557 38.5375 30.0627 41.5559 28.1062 44.4498C26.2549 47.2722 24.3864 49.8805 22.6891 52.1716C19.291 56.7537 16.5978 60.0925 15.7286 61.1772C15.7286 61.1772 13.3913 64.1287 10.356 67.936C7.32057 71.7434 3.64868 76.4215 1 80.0001" stroke="#959595" stroke-width="0.02"/>
<path opacity="0.7" d="M33.4143 35.5769C33.6709 35.0862 34.1261 34.1897 34.6599 32.9427C34.92 32.3192 35.2074 31.6109 35.4812 30.814C35.7934 29.9398 36.054 29.0452 36.2614 28.1355C36.5226 27.027 36.6378 25.8845 36.6037 24.7414C36.5766 24.087 36.4789 23.4382 36.3128 22.8082C36.1382 22.138 35.8804 21.4964 35.5462 20.9008C34.8792 19.7517 33.9911 18.7703 32.942 18.0231C31.9835 17.3309 30.9489 16.7695 29.8622 16.3518C27.7781 15.5513 25.8652 15.1418 24.3492 14.5072C23.6764 14.2389 23.0363 13.8834 22.4431 13.4484C22.2476 13.3012 22.0724 13.1248 21.923 12.9245C21.8371 12.8094 21.7721 12.678 21.7313 12.5371C21.681 12.2971 21.7164 12.0455 21.8306 11.8324C21.9773 11.5393 22.1629 11.2709 22.3815 11.0355C22.5533 10.8469 22.7375 10.6719 22.9325 10.5117C23.0014 10.4475 23.0734 10.3871 23.1481 10.3309C23.3945 10.1353 23.6751 9.96195 23.9659 9.76273L24.1918 9.62622L24.4553 9.47865L24.9926 9.17981L26.1081 8.55263L27.3025 7.95496C28.1067 7.52699 28.9724 7.16913 29.8519 6.76699C30.2899 6.56408 30.7519 6.39807 31.2207 6.22098C31.6895 6.04389 32.1378 5.85205 32.6169 5.68972L34.0474 5.20273C34.5264 5.03302 35.0227 4.91127 35.512 4.7637C36.4873 4.45748 37.49 4.24719 38.4824 4C38.982 3.89301 39.485 3.80448 39.9847 3.70486L40.7307 3.56099L41.4767 3.45399L42.9584 3.23632L44.4197 3.09613C47.7247 2.79583 51.0494 2.85392 54.3437 3.26953L56.0547 3.51671C56.5577 3.59787 56.9855 3.69748 57.338 3.7602L58.4296 3.97419" stroke="#202020" stroke-width="0.02"/>
<path opacity="0.7" d="M32.1919 36.097C32.1919 36.097 31.0831 38.2332 29.112 41.3064C27.1409 44.3796 24.3417 48.4747 21.2413 52.6031C18.1409 56.7314 14.7393 60.9409 11.8408 64.5417C8.94233 68.1425 6.56401 71.1456 5.30811 72.7394" stroke="#202020" stroke-width="0.02"/>
<path opacity="0.7" d="M34.5464 25.5455C34.5464 25.5455 34.5464 25.7152 34.5122 26.0251C34.4666 26.4804 34.3969 26.9325 34.3035 27.3791C33.9298 28.9889 33.4058 30.5538 32.7396 32.0498C31.1483 35.8313 28.1985 40.4799 25.0399 45.0657C21.8813 49.6515 18.384 54.1451 15.5711 57.65C12.7581 61.1548 10.6467 63.7558 10.0684 64.442" stroke="#959595" stroke-width="0.02"/>
</g>
<g opacity="0.7">
<path opacity="0.7" d="M34.18 13.8651C34.18 13.8651 33.5674 13.8651 34.5872 13.7397L35.3982 13.6069L35.9868 13.4556L36.5857 13.4003C36.5857 13.4003 36.7773 13.5737 37.3591 15.7135C37.6577 16.3394 37.8501 17.0178 37.9272 17.7168C37.9272 17.7168 38.6971 26.2797 38.4097 26.9659C38.4097 26.9659 38.3275 21.5463 38.1291 21.229C38.1291 21.229 38.2762 26.3941 37.9956 26.8368C37.9956 26.8368 37.9237 21.8119 37.4617 21.4208C37.4617 21.4208 37.5268 26.0509 37.1743 26.656C37.2135 26.2821 37.2135 25.9046 37.1743 25.5307L37.0956 25.955L37.0408 25.2946L37.0922 24.9036C37.0922 24.9036 36.9245 25.9698 36.7876 26.0583C36.7876 26.0583 37.0135 26.5047 36.7431 24.6564C36.7329 24.6564 37.2462 20.1296 34.18 13.8651Z" fill="#202020"/>
<path opacity="0.7" d="M36.833 13.3008C36.833 13.3008 37.5927 15.8833 38.1539 18.44C38.1539 18.44 38.7015 24.0515 38.6672 24.6639C38.7473 25.5374 38.7473 26.4172 38.6672 27.2907" stroke="#959595" stroke-width="0.02"/>
<path opacity="0.7" d="M38.4277 21.3435C38.4756 20.8786 38.0342 17.4882 38.0342 17.4882C37.9144 16.1268 36.833 13.3008 36.833 13.3008" stroke="#202020" stroke-width="0.02"/>
<path opacity="0.7" d="M37.6089 21.5612C37.6089 21.5612 37.8176 25.5973 37.7492 26.4975" stroke="#202020" stroke-width="0.02"/>
<path opacity="0.7" d="M36.3257 20.5724C36.3257 20.5724 36.4763 25.232 36.3873 25.6378" stroke="#959595" stroke-width="0.02"/>
</g>
<g opacity="0.7">
<path opacity="0.7" d="M38.5744 25.0697C38.611 25.0097 38.6408 24.9453 38.6634 24.8778V24.8409L38.6806 24.7376C38.7136 24.5158 38.6697 24.2886 38.5573 24.0994C38.5438 23.8799 38.5541 23.6595 38.5881 23.4427C38.6508 23.4365 38.7138 23.4365 38.7764 23.4427C39.0183 23.4519 39.2541 23.5281 39.4608 23.664C39.6142 23.7654 39.7536 23.8896 39.8749 24.033C39.9106 24.071 39.9437 24.1117 39.9741 24.1547L40.0596 24.2728C40.0844 24.3004 40.1073 24.33 40.1281 24.3613C40.2136 24.4757 40.2547 24.6528 40.4361 24.7302C40.5244 24.7483 40.6156 24.7384 40.6988 24.7017C40.782 24.6651 40.8536 24.6032 40.9049 24.5236C40.9733 24.4462 41.0349 24.3576 41.0999 24.2838C41.0999 24.2838 41.0657 24.2838 41.0726 24.2838L41.1273 24.2433L41.2368 24.1547C41.3155 24.0957 41.3908 24.033 41.4695 23.9776C41.6304 23.8706 41.8117 23.7526 41.976 23.6493L42.065 23.5866C42.1495 23.5243 42.2375 23.4676 42.3285 23.4168C42.6583 23.2164 43.0015 23.0425 43.3551 22.8967C44.4741 22.4576 45.6442 22.1882 46.8319 22.0961C46.8319 22.0961 48.0262 21.9928 49.8468 21.8821C51.6673 21.7714 54.1038 21.6718 56.5882 21.6644C61.5639 21.6238 66.7004 22.0334 67.4054 22.2879C67.4054 22.2879 66.6594 22.2104 65.5267 22.1071C64.394 22.0038 62.8712 21.8969 61.3244 21.8194C58.2445 21.657 55.0346 21.6755 54.6616 21.7788C54.6616 21.7788 57.5362 21.7788 60.5099 21.9596C63.4837 22.1404 66.5567 22.4945 66.9845 22.6974C66.9845 22.6974 64.2229 22.4097 61.3244 22.3027C58.4259 22.1957 55.4042 22.2695 54.9183 22.5093C54.9183 22.5093 57.4746 22.5351 60.1746 22.7233C62.8746 22.9114 65.7149 23.2582 66.3343 23.5202C66.3343 23.5202 65.8484 23.4501 65.3077 23.391C64.8331 23.3275 64.3554 23.2955 63.8772 23.2951L64.7807 23.4648L63.3229 23.3984L62.4811 23.273C62.4811 23.273 63.0525 23.3615 63.6411 23.4759C64.0752 23.5327 64.5015 23.6454 64.9107 23.8116C64.9107 23.8116 65.1742 23.7747 64.9107 23.7268C63.8874 23.6175 62.8588 23.578 61.8308 23.6087C61.8308 23.6087 61.2765 23.5386 60.2293 23.4685C59.1822 23.3984 57.6491 23.3541 55.6917 23.4205C53.3317 23.5051 50.9781 23.7342 48.6422 24.1068C47.2199 24.2907 45.8158 24.6118 44.4467 25.066C43.7756 25.3099 43.1474 25.6741 42.5886 26.1433L42.0171 26.6782C41.7736 26.9157 41.5075 27.1247 41.2231 27.3017C40.9515 27.4685 40.6531 27.5787 40.3437 27.6264C40.0226 27.6634 39.6981 27.614 39.3992 27.4825C38.9784 27.2832 38.6213 26.9547 38.3726 26.538C38.2118 26.2795 38.0786 26.0023 37.9756 25.7116V25.6821L38.1364 25.5751L38.1843 25.5419C38.2186 25.5124 38.2631 25.4755 38.3075 25.4312C38.4122 25.3252 38.502 25.2034 38.5744 25.0697Z" fill="#202020"/>
<path opacity="0.7" d="M38.1152 23.273L38.2042 23.2361C38.3037 23.1967 38.407 23.1695 38.5122 23.1549C38.6947 23.1298 38.8799 23.1385 39.0597 23.1807C39.2724 23.238 39.474 23.3354 39.6552 23.4685C39.8366 23.6069 39.9981 23.7735 40.1343 23.9629C40.1685 24.0108 40.2027 24.0625 40.2335 24.1141L40.2677 24.1621L40.3088 24.2359C40.348 24.3654 40.4218 24.4796 40.5209 24.5642C40.5991 24.5807 40.6802 24.5635 40.7468 24.5163C40.8287 24.4576 40.9005 24.3839 40.959 24.2986L41.048 24.1732L41.0685 24.1437L41.0377 24.1621L41.0685 24.1363L41.1369 24.0846L41.4107 23.8743C41.8087 23.5897 42.229 23.3428 42.6666 23.1365C43.5951 22.7174 44.5654 22.4153 45.5582 22.2363C46.5609 22.0407 47.5191 21.9153 48.491 21.7788C48.491 21.7788 51.6358 21.5279 54.9553 21.4505C58.2747 21.373 61.7583 21.4505 62.429 21.5316C62.429 21.5316 63.3427 21.5574 64.5233 21.6423C65.7627 21.7213 66.9974 21.8691 68.2226 22.085" stroke="#959595" stroke-width="0.02"/>
<path opacity="0.7" d="M55.011 21.4466C54.5011 21.4134 52.3349 21.4835 50.3022 21.6347C49.2756 21.7085 48.3003 21.7971 47.5645 21.8672L46.3463 21.9926C45.0502 22.1079 43.7794 22.4454 42.582 22.9924C42.2176 23.1641 41.8664 23.3664 41.5314 23.5975C41.3603 23.7081 41.1892 23.8373 41.0352 23.9664L40.9736 24.0143L41.0044 23.9922V24.0143L40.977 24.0623C40.9387 24.1406 40.8903 24.2126 40.8333 24.2763C40.8047 24.3095 40.7696 24.3353 40.7305 24.3519C40.6914 24.3685 40.6494 24.3755 40.6074 24.3722C40.5236 24.3451 40.4526 24.2844 40.409 24.2025C40.3835 24.1642 40.3548 24.1284 40.3234 24.0955C40.3234 24.0955 40.2276 23.959 40.166 23.8815C40.0937 23.7913 40.0159 23.7062 39.9333 23.627C39.764 23.4618 39.5695 23.3295 39.3584 23.2359C39.152 23.1463 38.9306 23.1036 38.7082 23.1105C38.5602 23.115 38.4137 23.1436 38.2736 23.1953C38.1812 23.2285 38.1367 23.2507 38.1367 23.2507" stroke="#202020" stroke-width="0.02"/>
<path opacity="0.7" d="M55.2847 22.3396C55.2847 22.3396 57.5261 22.3396 60.0105 22.4171C62.495 22.4945 65.2121 22.7159 66.1703 22.8598" stroke="#202020" stroke-width="0.02"/>
<path opacity="0.7" d="M52.8174 23.7009C52.8174 23.7009 55.3771 23.6603 58.0394 23.7489C60.7018 23.8374 63.4634 24.0367 63.8912 24.1178" stroke="#959595" stroke-width="0.02"/>
</g>
</svg>
