<svg width="67" height="9" viewBox="0 0 67 9" fill="none" xmlns="http://www.w3.org/2000/svg">
<path d="M4.92969 5.89062C4.92969 6.15104 4.86719 6.41406 4.74219 6.67969C4.61719 6.9401 4.4375 7.17708 4.20312 7.39062C3.96875 7.59896 3.6849 7.77083 3.35156 7.90625C3.02344 8.03646 2.65365 8.10156 2.24219 8.10156C2.02344 8.10156 1.82031 8.08854 1.63281 8.0625C1.44531 8.03646 1.26823 8.0026 1.10156 7.96094C0.940104 7.91406 0.783854 7.85938 0.632812 7.79688C0.481771 7.72917 0.330729 7.65625 0.179688 7.57812L0.523438 6.50781C0.622396 6.57552 0.752604 6.64844 0.914062 6.72656C1.08073 6.80469 1.26042 6.8776 1.45312 6.94531C1.64583 7.01302 1.83854 7.07031 2.03125 7.11719C2.22917 7.15885 2.40885 7.17969 2.57031 7.17969C2.7526 7.17969 2.90104 7.16927 3.01562 7.14844C3.13542 7.1224 3.24219 7.08854 3.33594 7.04688C3.4401 7.00521 3.52344 6.90104 3.58594 6.73438C3.64844 6.56771 3.67969 6.35156 3.67969 6.08594C3.67969 5.84115 3.59896 5.64583 3.4375 5.5C3.27604 5.35417 3.07292 5.22917 2.82812 5.125C2.58854 5.01562 2.32812 4.90885 2.04688 4.80469C1.76562 4.69531 1.5026 4.55729 1.25781 4.39062C1.01823 4.21875 0.817708 4 0.65625 3.73438C0.494792 3.46875 0.414062 3.11979 0.414062 2.6875C0.414062 2.47917 0.46875 2.26042 0.578125 2.03125C0.6875 1.79688 0.846354 1.58333 1.05469 1.39062C1.26302 1.19271 1.52083 1.03125 1.82812 0.90625C2.13542 0.78125 2.48438 0.71875 2.875 0.71875C3.1875 0.71875 3.48698 0.734375 3.77344 0.765625C4.0651 0.796875 4.34635 0.838542 4.61719 0.890625L4.39844 1.96094C4.27344 1.91406 4.13021 1.86979 3.96875 1.82812C3.8125 1.78646 3.65104 1.75 3.48438 1.71875C3.32292 1.6875 3.16406 1.66406 3.00781 1.64844C2.85156 1.6276 2.71354 1.61719 2.59375 1.61719C2.45833 1.61719 2.33333 1.625 2.21875 1.64062C2.10417 1.65104 2 1.6849 1.90625 1.74219C1.81771 1.79427 1.7526 1.88542 1.71094 2.01562C1.67448 2.14062 1.65625 2.29167 1.65625 2.46875C1.65625 2.65104 1.70312 2.80208 1.79688 2.92188C1.89062 3.04167 2.01302 3.14844 2.16406 3.24219C2.32031 3.33073 2.49479 3.41406 2.6875 3.49219C2.88542 3.5651 3.08594 3.64583 3.28906 3.73438C3.4974 3.81771 3.69792 3.91667 3.89062 4.03125C4.08854 4.14062 4.26302 4.27865 4.41406 4.44531C4.57031 4.60677 4.69531 4.80469 4.78906 5.03906C4.88281 5.27344 4.92969 5.55729 4.92969 5.89062ZM11.1791 8V4.75781H8.08531V8H6.69469V0.796875H8.08531V3.95312H11.1791V0.796875H12.5775V8H11.1791ZM19.1394 8L18.3347 5.57031L15.7566 5.60938L14.9284 8H14.0456L16.7566 0.859375L18.1081 0.617188L20.6316 8H19.1394ZM18.1159 4.89062L17.0769 1.78125L16.0066 4.89062H18.1159ZM27.6934 8.03906L22.8575 2.98438H22.8419C22.8523 3.40625 22.8627 3.79427 22.8731 4.14844C22.8783 4.29948 22.8809 4.45052 22.8809 4.60156C22.8861 4.7526 22.8888 4.89323 22.8888 5.02344C22.894 5.14844 22.8966 5.26042 22.8966 5.35938C22.8966 5.45833 22.8966 5.52865 22.8966 5.57031V8H22.0841V0.75H22.6934L27.5294 5.78125C27.5242 5.39583 27.519 5.03385 27.5138 4.69531C27.5138 4.54948 27.5111 4.40365 27.5059 4.25781C27.5059 4.10677 27.5033 3.96354 27.4981 3.82812C27.4981 3.69271 27.4981 3.57031 27.4981 3.46094C27.4981 3.34635 27.4981 3.25521 27.4981 3.1875V0.804688H28.3184V8.03906H27.6934ZM38.0828 6.05469C38.0828 6.3724 38.0307 6.65625 37.9266 6.90625C37.8276 7.15625 37.6714 7.36979 37.4578 7.54688C37.2495 7.71875 36.9839 7.85156 36.6609 7.94531C36.338 8.03385 35.9526 8.07812 35.5047 8.07812C35.3589 8.07812 35.1896 8.07552 34.9969 8.07031C34.8042 8.0651 34.6036 8.05729 34.3953 8.04688C34.1922 8.04167 33.9917 8.03125 33.7938 8.01562C33.601 8 33.4318 7.98438 33.2859 7.96875V0.851562C33.562 0.820312 33.8771 0.796875 34.2313 0.78125C34.5854 0.765625 34.9188 0.757812 35.2313 0.757812C35.6115 0.757812 35.9578 0.791667 36.2703 0.859375C36.5828 0.921875 36.8484 1.02344 37.0672 1.16406C37.2911 1.29948 37.463 1.47656 37.5828 1.69531C37.7026 1.90885 37.7625 2.16667 37.7625 2.46875C37.7625 2.71354 37.7286 2.92969 37.6609 3.11719C37.5932 3.29948 37.5021 3.46094 37.3875 3.60156C37.2781 3.73698 37.1479 3.84896 36.9969 3.9375C36.8458 4.02083 36.6896 4.08333 36.5281 4.125V4.14844C36.8042 4.20573 37.0385 4.29427 37.2313 4.41406C37.4292 4.53385 37.5906 4.67708 37.7156 4.84375C37.8406 5.00521 37.9318 5.1901 37.9891 5.39844C38.0516 5.60156 38.0828 5.82031 38.0828 6.05469ZM36.3484 2.63281C36.3484 2.20573 36.2313 1.90885 35.9969 1.74219C35.7677 1.57031 35.4422 1.48438 35.0203 1.48438C34.9578 1.48438 34.8953 1.48698 34.8328 1.49219C34.7755 1.49219 34.7234 1.49479 34.6766 1.5V3.82031H35.1375C35.299 3.82031 35.4604 3.80469 35.6219 3.77344C35.7833 3.74219 35.9083 3.70312 35.9969 3.65625C36.0385 3.63021 36.0802 3.59635 36.1219 3.55469C36.1635 3.50781 36.2 3.44531 36.2313 3.36719C36.2677 3.28906 36.2964 3.1901 36.3172 3.07031C36.338 2.95052 36.3484 2.80469 36.3484 2.63281ZM36.6609 5.96875C36.6609 5.5 36.5281 5.14583 36.2625 4.90625C36.0021 4.66667 35.6193 4.54688 35.1141 4.54688H34.6766V7.3125C34.7182 7.31771 34.7521 7.32292 34.7781 7.32812C34.8094 7.32812 34.8406 7.33073 34.8719 7.33594C34.9031 7.33594 34.9422 7.33594 34.9891 7.33594C35.0359 7.33594 35.1036 7.33594 35.1922 7.33594C35.2755 7.33594 35.3667 7.33333 35.4656 7.32812C35.5698 7.31771 35.6688 7.30729 35.7625 7.29688C35.8615 7.28125 35.95 7.26302 36.0281 7.24219C36.1115 7.22135 36.1766 7.19792 36.2234 7.17188C36.2703 7.14062 36.3198 7.09896 36.3719 7.04688C36.424 6.99479 36.4708 6.92448 36.5125 6.83594C36.5594 6.74219 36.5958 6.6276 36.6219 6.49219C36.6479 6.35156 36.6609 6.17708 36.6609 5.96875ZM44.1838 8L43.3791 5.57031L40.8009 5.60938L39.9728 8H39.09L41.8009 0.859375L43.1525 0.617188L45.6759 8H44.1838ZM43.1603 4.89062L42.1213 1.78125L41.0509 4.89062H43.1603ZM52.6753 1.28125C52.5503 1.28125 52.4305 1.29948 52.3159 1.33594C52.2014 1.36719 52.0842 1.41927 51.9644 1.49219C51.8446 1.5651 51.717 1.66146 51.5816 1.78125C51.4514 1.89583 51.3081 2.03646 51.1519 2.20312C50.98 2.38542 50.7977 2.58854 50.605 2.8125C50.4175 3.03125 50.2144 3.26823 49.9956 3.52344C50.2821 4.10677 50.5555 4.64062 50.8159 5.125C51.0816 5.60938 51.3394 6.02865 51.5894 6.38281C51.8446 6.73177 52.0972 7.00521 52.3472 7.20312C52.5972 7.39583 52.8576 7.49219 53.1284 7.49219H53.2144V7.95312C53.0633 7.99479 52.9097 8.02604 52.7534 8.04688C52.5972 8.06771 52.4149 8.07812 52.2066 8.07812C51.868 8.07812 51.5737 8.02083 51.3237 7.90625C51.0737 7.79167 50.8342 7.59896 50.605 7.32812C50.3758 7.05208 50.1389 6.6901 49.8941 6.24219C49.6545 5.78906 49.3784 5.22917 49.0659 4.5625C49.0295 4.60417 48.9852 4.65625 48.9331 4.71875C48.8862 4.77604 48.8342 4.83594 48.7769 4.89844C48.7248 4.96094 48.6753 5.02344 48.6284 5.08594C48.5816 5.14323 48.5451 5.1875 48.5191 5.21875V8H47.1284V0.796875H48.5191V4.17188C48.6545 4.01042 48.8159 3.8099 49.0034 3.57031C49.1961 3.33073 49.3915 3.08594 49.5894 2.83594C49.7925 2.58594 49.9852 2.34896 50.1675 2.125C50.355 1.90104 50.5112 1.72135 50.6362 1.58594C50.7977 1.40885 50.9435 1.26823 51.0737 1.16406C51.204 1.05469 51.3316 0.973958 51.4566 0.921875C51.5868 0.864583 51.7196 0.828125 51.855 0.8125C51.9904 0.796875 52.1467 0.789062 52.3237 0.789062C52.3967 0.789062 52.48 0.794271 52.5737 0.804688C52.6727 0.809896 52.7404 0.820312 52.7769 0.835938V1.28125H52.6753ZM58.6512 8H54.5341V0.796875H58.5106L58.4403 1.53125L55.9247 1.5625V3.90625L58.2919 3.9375L58.2294 4.60156L55.9247 4.65625V7.23438L58.7137 7.28906L58.6512 8ZM62.3459 5.03125H61.8772V8H60.4866V0.8125C60.7678 0.791667 61.0855 0.773438 61.4397 0.757812C61.7939 0.742188 62.1324 0.734375 62.4553 0.734375C63.2834 0.734375 63.911 0.893229 64.3381 1.21094C64.7704 1.52865 64.9866 2.02604 64.9866 2.70312C64.9866 3.00521 64.9501 3.26823 64.8772 3.49219C64.8043 3.71615 64.7079 3.91146 64.5881 4.07812C64.4683 4.24479 64.3303 4.38542 64.1741 4.5C64.0178 4.61458 63.8537 4.71094 63.6819 4.78906C63.885 5.15885 64.0777 5.50781 64.26 5.83594C64.4475 6.16406 64.6324 6.45052 64.8147 6.69531C65.0022 6.9401 65.1897 7.13542 65.3772 7.28125C65.5699 7.42188 65.7756 7.49219 65.9944 7.49219H66.0412V7.95312C65.9319 7.98958 65.8043 8.01823 65.6584 8.03906C65.5178 8.0651 65.359 8.07812 65.1819 8.07812C64.9267 8.07812 64.7027 8.05469 64.51 8.00781C64.3225 7.96094 64.1376 7.85938 63.9553 7.70312C63.7782 7.54688 63.5933 7.31771 63.4006 7.01562C63.2079 6.71354 62.984 6.30469 62.7287 5.78906L62.3459 5.03125ZM62.1272 4.32031C62.3199 4.32031 62.5048 4.29688 62.6819 4.25C62.8642 4.19792 63.0074 4.13542 63.1116 4.0625C63.1636 4.02604 63.2157 3.97917 63.2678 3.92188C63.3199 3.86458 63.3668 3.78906 63.4084 3.69531C63.4501 3.60156 63.484 3.48177 63.51 3.33594C63.536 3.1901 63.5491 3.00781 63.5491 2.78906C63.5491 2.54427 63.5204 2.33854 63.4631 2.17188C63.411 2.00521 63.3303 1.8724 63.2209 1.77344C63.1116 1.66927 62.9761 1.59635 62.8147 1.55469C62.6532 1.50781 62.4683 1.48438 62.26 1.48438C62.2027 1.48438 62.1376 1.48698 62.0647 1.49219C61.997 1.49219 61.9345 1.4974 61.8772 1.50781V4.32031H62.1272Z" fill="#666666"/>
</svg>
